<?xml version="1.0" standalone="no"?><!DOCTYPE svg PUBLIC "-//W3C//DTD SVG 1.1//EN" "http://www.w3.org/Graphics/SVG/1.1/DTD/svg11.dtd"><svg t="1573994925409" class="icon" viewBox="0 0 1024 1024" version="1.1" xmlns="http://www.w3.org/2000/svg" p-id="2349" xmlns:xlink="http://www.w3.org/1999/xlink" width="200" height="200"><defs><style type="text/css"></style></defs><path d="M190.897316 95.164338v824.757598h329.110003l-10.912177 57.510981-9.897092 46.567083 46.598805-9.897091 111.025061-21.824355 9.897091-1.96673 6.946997-6.946996 313.24928-314.232645a94.085809 94.085809 0 0 0 0-132.849416A93.578266 93.578266 0 0 0 920.490576 508.526502a93.578266 93.578266 0 0 0-66.424709 27.756265l-28.73963 28.771352V304.335553l-8.913726-9.928812-190.328676-190.328677L616.155022 95.164338H190.897316z m63.442892 63.442892h317.214461v190.328677h190.328676v279.561104l-222.050122 221.035036-6.946997 6.946996H254.340208V158.60723z m380.657353 45.61544L716.299627 285.493014H634.997561V204.190948z m285.493015 365.748273c7.45454 0 14.718751 3.838295 21.824354 10.943899 14.147765 14.147765 14.147765 29.437502 0 43.616988L634.997561 931.785756l-54.529166 10.912178 10.912178-54.529166 305.318918-306.302283 1.998451-1.015086c7.073882-7.073882 14.338094-10.880456 21.792634-10.880456z" p-id="2350"></path></svg>