<?xml version="1.0" standalone="no"?><!DOCTYPE svg PUBLIC "-//W3C//DTD SVG 1.1//EN" "http://www.w3.org/Graphics/SVG/1.1/DTD/svg11.dtd"><svg t="1573994910221" class="icon" viewBox="0 0 1024 1024" version="1.1" xmlns="http://www.w3.org/2000/svg" p-id="2115" xmlns:xlink="http://www.w3.org/1999/xlink" width="200" height="200"><defs><style type="text/css"></style></defs><path d="M192 96v832h376.992c47.008 58.496 118.4 96 199.008 96 140.992 0 256-115.008 256-256 0-118.752-82.016-218.304-192-247.008V307.008l-8.992-10.016-192-192L620.992 96H192z m64 64h320v192h192v160c-140.992 0-256 115.008-256 256 0 34.112 6.816 66.208 19.008 96H256V160z m384 46.016L722.016 288H640V205.984zM768 576c106.432 0 192 85.568 192 192s-85.568 192-192 192-192-85.568-192-192 85.568-192 192-192z m-32 64v96h-96v64h96v96h64v-96h96v-64h-96v-96h-64z" p-id="2116"></path></svg>