<?xml version="1.0" standalone="no"?><!DOCTYPE svg PUBLIC "-//W3C//DTD SVG 1.1//EN" "http://www.w3.org/Graphics/SVG/1.1/DTD/svg11.dtd"><svg t="1573995190801" class="icon" viewBox="0 0 1024 1024" version="1.1" xmlns="http://www.w3.org/2000/svg" p-id="6346" xmlns:xlink="http://www.w3.org/1999/xlink" width="200" height="200"><defs><style type="text/css"></style></defs><path d="M678.4 642.56c24.064-12.8 51.712-20.48 81.408-20.48 3.072 0 4.608-3.584 2.048-5.632-30.72-27.648-65.536-49.664-103.936-66.048-0.512 0-1.024-0.512-1.024-0.512 61.952-45.056 102.4-118.272 102.4-201.216 0-137.216-110.592-247.808-247.296-247.808s-247.296 111.104-247.296 247.808c0 82.944 40.448 156.16 102.4 201.216-0.512 0-1.024 0.512-1.024 0.512-44.544 18.944-84.992 46.08-119.296 80.384-34.304 34.304-61.44 74.752-80.384 119.296-18.432 44.032-28.16 90.112-29.184 138.24 0 4.608 3.584 8.192 8.192 8.192h59.904c4.096 0 7.68-3.584 8.192-7.68 2.048-77.312 32.768-149.504 87.552-204.288 56.32-56.832 131.584-88.064 211.456-88.064 56.832 0 111.104 15.872 158.208 45.056 2.048 2.048 5.12 2.048 7.68 1.024z m-166.4-121.344c-45.568 0-89.088-17.92-121.344-50.176-32.256-32.256-50.176-75.776-50.176-121.856s17.92-89.088 50.176-121.856 75.264-50.176 121.344-50.176 89.088 17.92 121.344 50.176c32.256 32.256 50.176 75.776 50.176 121.856s-17.92 89.088-50.176 121.856c-32.256 32.256-75.264 50.176-121.344 50.176z m368.128 237.568h-83.968v-83.968c0-4.608-3.584-8.192-8.192-8.192H732.16c-4.608 0-8.192 3.584-8.192 8.192v83.968H640c-4.608 0-8.192 3.584-8.192 8.192v55.808c0 4.608 3.584 8.192 8.192 8.192h83.968v83.968c0 4.608 3.584 8.192 8.192 8.192h55.808c4.608 0 8.192-3.584 8.192-8.192v-83.968h83.968c4.608 0 8.192-3.584 8.192-8.192v-55.808c-0.512-4.608-4.096-8.192-8.192-8.192z" p-id="6347"></path></svg>