<?xml version="1.0" standalone="no"?><!DOCTYPE svg PUBLIC "-//W3C//DTD SVG 1.1//EN" "http://www.w3.org/Graphics/SVG/1.1/DTD/svg11.dtd"><svg t="1573995178772" class="icon" viewBox="0 0 1024 1024" version="1.1" xmlns="http://www.w3.org/2000/svg" p-id="6012" xmlns:xlink="http://www.w3.org/1999/xlink" width="200" height="200"><defs><style type="text/css"></style></defs><path d="M128 384v512h768V192h-128v64h-64V192H320v64H256V192H128v128h768v64H128z m192-256h384V64h64v64h192v832H64V128h192V64h64v64zM256 512h128v64H256v-64z m0 192h128v64H256v-64z m192-192h128v64h-128v-64z m0 192h128v64h-128v-64z m192-192h128v64h-128v-64z m0 192h128v64h-128v-64z" p-id="6013"></path></svg>