<?xml version="1.0" standalone="no"?><!DOCTYPE svg PUBLIC "-//W3C//DTD SVG 1.1//EN" "http://www.w3.org/Graphics/SVG/1.1/DTD/svg11.dtd"><svg t="1573995043811" class="icon" viewBox="0 0 1024 1024" version="1.1" xmlns="http://www.w3.org/2000/svg" p-id="4433" xmlns:xlink="http://www.w3.org/1999/xlink" width="200" height="200"><defs><style type="text/css"></style></defs><path d="M512 1024C229.243871 1024 0 794.756129 0 512 0 229.243871 229.243871 0 512 0c282.756129 0 512 229.243871 512 512 0 282.756129-229.243871 512-512 512z m0-842.322581a49.548387 49.548387 0 0 0-49.548387 49.548387v363.354839a49.548387 49.548387 0 0 0 99.096774 0V231.225806a49.548387 49.548387 0 0 0-49.548387-49.548387z m0 677.161291a66.064516 66.064516 0 1 0 0-132.129033 66.064516 66.064516 0 0 0 0 132.129033z" p-id="4434"></path></svg>