<?xml version="1.0" standalone="no"?><!DOCTYPE svg PUBLIC "-//W3C//DTD SVG 1.1//EN" "http://www.w3.org/Graphics/SVG/1.1/DTD/svg11.dtd"><svg t="1573994963811" class="icon" viewBox="0 0 1024 1024" version="1.1" xmlns="http://www.w3.org/2000/svg" p-id="2847" xmlns:xlink="http://www.w3.org/1999/xlink" width="200" height="200"><defs><style type="text/css"></style></defs><path d="M636.8 3.2v246.4h246.4c3.2 0 6.4-3.2 3.2-6.4L643.2 0s-6.4 0-6.4 3.2z" p-id="2848"></path><path d="M611.2 323.2c-25.6 0-48-22.4-48-48V0H176C150.4 0 128 22.4 128 48v928c0 25.6 22.4 48 48 48h672c25.6 0 48-22.4 48-48V323.2h-284.8zM393.6 800c19.2 19.2 19.2 48 0 67.2-19.2 19.2-48 19.2-67.2 0l-156.8-156.8c-9.6-9.6-12.8-22.4-12.8-35.2 0-12.8 3.2-25.6 12.8-35.2l156.8-156.8c19.2-19.2 48-19.2 67.2 0 19.2 19.2 19.2 48 0 67.2l-124.8 124.8 124.8 124.8z m115.2 70.4c-6.4 25.6-32 41.6-57.6 35.2-25.6-6.4-41.6-32-35.2-57.6l102.4-380.8c6.4-25.6 32-41.6 57.6-35.2 25.6 6.4 41.6 32 35.2 57.6l-102.4 380.8z m342.4-160l-156.8 156.8c-19.2 19.2-48 19.2-67.2 0-19.2-19.2-19.2-48 0-67.2l124.8-124.8-124.8-124.8c-19.2-19.2-19.2-48 0-67.2 19.2-19.2 48-19.2 67.2 0l156.8 156.8c9.6 9.6 12.8 22.4 12.8 35.2 0 12.8-3.2 25.6-12.8 35.2z" p-id="2849"></path></svg>