<?xml version="1.0" standalone="no"?><!DOCTYPE svg PUBLIC "-//W3C//DTD SVG 1.1//EN" "http://www.w3.org/Graphics/SVG/1.1/DTD/svg11.dtd"><svg t="1573995184148" class="icon" viewBox="0 0 1024 1024" version="1.1" xmlns="http://www.w3.org/2000/svg" p-id="6235" xmlns:xlink="http://www.w3.org/1999/xlink" width="200" height="200"><defs><style type="text/css"></style></defs><path d="M416 96c-123.36 0-224 100.64-224 224 0 77.12 39.36 145.6 99.008 186.016C176.864 554.976 96 668.256 96 800h64c0-141.76 114.24-256 256-256 68.64 0 130.016 28.128 176 72l-151.008 151.008-1.984 9.984-22.016 113.024-9.984 46.976 47.008-9.984 112.96-22.016 10.016-1.984 323.008-323.008c37.12-37.12 37.12-98.88 0-136a96.576 96.576 0 0 0-135.008-0.992l-126.976 127.008a323.296 323.296 0 0 0-97.024-64A224.768 224.768 0 0 0 640 320c0-123.36-100.64-224-224-224z m0 64c88.736 0 160 71.264 160 160s-71.264 160-160 160-160-71.264-160-160 71.264-160 160-160z m416 320c8.128 0 16.64 2.624 23.008 8.992a31.264 31.264 0 0 1 0 44.992l-310.016 310.016-56.992 12 12-56.992 310.016-310.016c6.368-6.368 13.856-8.992 21.984-8.992z" p-id="6236"></path></svg>