<?xml version="1.0" standalone="no"?><!DOCTYPE svg PUBLIC "-//W3C//DTD SVG 1.1//EN" "http://www.w3.org/Graphics/SVG/1.1/DTD/svg11.dtd"><svg t="1573995176107" class="icon" viewBox="0 0 1024 1024" version="1.1" xmlns="http://www.w3.org/2000/svg" p-id="5901" xmlns:xlink="http://www.w3.org/1999/xlink" width="200" height="200"><defs><style type="text/css"></style></defs><path d="M594.351078 307.451324c0-51.614541 40.641629-93.069699 90.213651-93.069699 50.006927 0 90.251513 41.455157 90.251513 93.069699 0 51.218522-40.244586 93.071745-90.251513 93.071745C634.992707 400.523069 594.351078 358.670869 594.351078 307.451324zM127.806339 777.270643c-28.060079 28.855188-28.060079 75.588559 0 104.442724 28.02017 28.853142 73.543993 28.853142 101.167121 0l20.320814-20.718881 84.141352 87.377046c14.645558 14.625092 37.783535 14.625092 52.033074 0L511.440763 818.310338c14.208607-14.626115 14.208607-38.59911 0-53.224202l-84.537372-87.395466 150.382009-154.846694c32.108279 17.087167 68.701708 26.830065 107.280352 26.830065 129.662105 0 234.918357-108.510366 234.918357-242.222717 0-133.712351-105.256252-242.221694-234.918357-242.221694-129.626289 0-234.484476 108.510366-234.484476 242.221694 0 39.828101 9.367345 77.632101 25.600051 110.950951L127.806339 777.270643z" p-id="5902"></path></svg>