<?xml version="1.0" standalone="no"?><!DOCTYPE svg PUBLIC "-//W3C//DTD SVG 1.1//EN" "http://www.w3.org/Graphics/SVG/1.1/DTD/svg11.dtd"><svg t="1573995021985" class="icon" viewBox="0 0 1024 1024" version="1.1" xmlns="http://www.w3.org/2000/svg" p-id="3988" xmlns:xlink="http://www.w3.org/1999/xlink" width="200" height="200"><defs><style type="text/css"></style></defs><path d="M960 256l-256-256v256zM704 0z" p-id="3989"></path><path d="M640 0H192C121.6 0 64 57.6 64 128v768c0 70.4 57.6 128 128 128h640c70.4 0 128-57.6 128-128V320h-320V0z m64 640H320V576h384v64z m0 128v64H320v-64h384z m0-403.2v64H358.4l64 64-38.4 51.2-147.2-147.2L384 256l44.8 44.8-64 64H704z" p-id="3990"></path></svg>