<?xml version="1.0" standalone="no"?><!DOCTYPE svg PUBLIC "-//W3C//DTD SVG 1.1//EN" "http://www.w3.org/Graphics/SVG/1.1/DTD/svg11.dtd"><svg t="1573994999945" class="icon" viewBox="0 0 1024 1024" version="1.1" xmlns="http://www.w3.org/2000/svg" p-id="3421" xmlns:xlink="http://www.w3.org/1999/xlink" width="200" height="200"><defs><style type="text/css"></style></defs><path d="M912.8 441.5h-47.2V253.4L677.1 65.3H252.6c-52.1 0-94.3 42.1-94.3 94v282.1h-47.2c-26 0-47.2 21.1-47.2 47v282.1c0 26 21.1 47 47.2 47h47.2v47c0 51.9 42.2 94 94.3 94h518.7c52.1 0 94.3-42.1 94.3-94v-47h47.2c26 0 47.2-21 47.2-47v-282c0-26-21.1-47-47.2-47zM205.5 159.3c0-26 21.1-47 47.2-47H630v94.1c0 51.9 42.2 94 94.3 94h94.3v141.1H205.5V159.3z m397.6 590.5c10.4 0 19.6-1.6 26.4-3.9l8.5 35.5c-8.2 3.9-22.8 7.2-40.4 7.2-49.2 0-83.5-26.4-100.1-62.9-51.5-9.8-85.7-55.4-85.7-124.2 0-78.6 44-124.2 107.9-124.2s107.9 46 107.9 124.2c0 65.9-31.3 110.2-79.2 122.6 11 18.2 32.9 25.7 54.7 25.7z m-371-90.6c17.3 16 40.1 26.7 61.3 26.7 25.1 0 38.5-10.8 38.5-27.7 0-17.9-14.7-23.5-36.2-32.6l-32.3-13.7c-24.5-10.1-48.9-29.7-48.9-64.9 0-39.4 34.6-69.8 83.5-69.8 28 0 56.1 11.1 75.6 31l-24.5 30.3c-15.3-12.7-31.3-19.9-51.2-19.9-21.2 0-34.9 9.5-34.9 25.4 0 17.3 17.3 23.5 37.8 31.6l31.6 13.4c29.3 12.1 48.6 30.6 48.6 65.5 0 39.4-32.9 73-88.7 73-32.3 0-64.5-12.7-88-35.2l27.8-33.1z m586.4 205.5c0 26-21.1 47-47.2 47H252.6c-26 0-47.2-21.1-47.2-47v-47h613.1v47z m2.4-141.6h-146V481.9h48.2v200.8h97.8v40.4z" fill="#666666" p-id="3422"></path><path d="M519.7 518.7c-35.9 0-58.7 31-58.7 82.8 0 54.1 22.8 86.7 58.7 86.7s58.7-32.6 58.7-86.7c-0.1-51.8-22.9-82.8-58.7-82.8z" fill="#666666" p-id="3423"></path></svg>