<?xml version="1.0" standalone="no"?><!DOCTYPE svg PUBLIC "-//W3C//DTD SVG 1.1//EN" "http://www.w3.org/Graphics/SVG/1.1/DTD/svg11.dtd"><svg t="1573995181315" class="icon" viewBox="0 0 1091 1024" version="1.1" xmlns="http://www.w3.org/2000/svg" p-id="6123" xmlns:xlink="http://www.w3.org/1999/xlink" width="213.0859375" height="200"><defs><style type="text/css"></style></defs><path d="M950.4 0H137.6C60.8 0 0 60.8 0 134.4v752C0 963.2 60.8 1024 137.6 1024h816c73.6 0 137.6-60.8 137.6-134.4V134.4C1088 60.8 1027.2 0 950.4 0z m51.2 883.2c0 28.8-25.6 54.4-54.4 54.4H144c-28.8 0-54.4-25.6-54.4-54.4V140.8c0-28.8 25.6-54.4 54.4-54.4h803.2c28.8 0 54.4 25.6 54.4 54.4v742.4z m0 0" fill="#2C9EF4" p-id="6124"></path><path d="M217.6 435.2v188.8h48v-188.8h67.2v-38.4H150.4v38.4h67.2zM371.2 396.8v227.2h48v-227.2h-48zM688 428.8v192h44.8v-227.2h-76.8L608 560l-48-166.4H480v227.2h44.8v-192l60.8 195.2h41.6l60.8-195.2zM931.2 620.8v-38.4h-105.6v-60.8h96v-38.4h-96v-51.2H928v-38.4h-150.4v227.2h153.6z" fill="#2C9EF4" p-id="6125"></path></svg>