<?xml version="1.0" standalone="no"?><!DOCTYPE svg PUBLIC "-//W3C//DTD SVG 1.1//EN" "http://www.w3.org/Graphics/SVG/1.1/DTD/svg11.dtd"><svg t="1573995014229" class="icon" viewBox="0 0 1024 1024" version="1.1" xmlns="http://www.w3.org/2000/svg" p-id="3766" xmlns:xlink="http://www.w3.org/1999/xlink" width="200" height="200"><defs><style type="text/css"></style></defs><path d="M832.601397 397.799619H812.698413V301.746794c0-0.601397-0.097524-1.202794-0.170667-1.812318a15.969524 15.969524 0 0 0-3.860317-10.524444L648.842159 106.84546c-0.048762-0.048762-0.097524-0.065016-0.130032-0.113777a16.075175 16.075175 0 0 0-4.299175-3.348318 16.879746 16.879746 0 0 0-3.210158-1.349079c-0.300698-0.08127-0.568889-0.203175-0.869588-0.284445a16.278349 16.278349 0 0 0-3.730285-0.463238H243.809524c-17.936254 0-32.507937 14.587937-32.507937 32.507937v263.996952h-19.902984a46.461968 46.461968 0 0 0-46.461968 46.461968v241.615238a46.470095 46.470095 0 0 0 46.461968 46.461969H211.301587v165.400381c0 17.92 14.571683 32.507937 32.507937 32.507936h536.380952c17.92 0 32.507937-14.587937 32.507937-32.507936V732.338794h19.902984a46.470095 46.470095 0 0 0 46.461968-46.461969v-241.615238a46.453841 46.453841 0 0 0-46.461968-46.461968zM243.809524 133.79454h376.539428v166.31873a16.253968 16.253968 0 0 0 16.253969 16.253968H780.190476v81.432381H243.809524V133.79454z m160.345397 307.728254h63.016635l21.26019 44.30019a760.328127 760.328127 0 0 1 18.366984 40.326095h0.723302c5.745778-15.481905 10.435048-26.290794 16.554666-40.326095l20.536889-44.30019h62.667175l-68.429206 118.475174 72.02946 124.253461h-63.390476l-21.959111-43.934477c-9.004698-16.928508-14.774857-29.525333-21.617778-43.576889h-0.723302c-5.03873 14.051556-11.158349 26.648381-18.716444 43.576889l-20.163048 43.934477H401.635556l70.233396-122.798731-67.714031-119.929904zM197.428825 487.619048v-46.096254h186.538667V487.619048h-66.259302v196.624254h-55.084698V487.619048h-65.194667zM780.190476 888.921397H243.809524V732.338794h536.380952v156.582603zM810.780444 487.619048H744.513016v196.624254h-55.100953V487.619048h-65.186539v-46.096254h186.55492V487.619048z" fill="#333333" p-id="3767"></path></svg>