<?xml version="1.0" standalone="no"?><!DOCTYPE svg PUBLIC "-//W3C//DTD SVG 1.1//EN" "http://www.w3.org/Graphics/SVG/1.1/DTD/svg11.dtd"><svg t="1573995010140" class="icon" viewBox="0 0 1024 1024" version="1.1" xmlns="http://www.w3.org/2000/svg" p-id="3644" xmlns:xlink="http://www.w3.org/1999/xlink" width="200" height="200"><defs><style type="text/css"></style></defs><path d="M831.746076 393.073672h-19.954501V296.776233c0-0.604092-0.098293-1.207161-0.172012-1.817396a16.021758 16.021758 0 0 0-3.869263-10.553186L647.503032 101.352361c-0.049146-0.049146-0.098293-0.065529-0.131058-0.114676a16.120051 16.120051 0 0 0-4.309533-3.35732 16.930968 16.930968 0 0 0-3.221143-1.352552c-0.299998-0.081911-0.570304-0.203753-0.870303-0.285664a16.335066 16.335066 0 0 0-3.740253-0.46382H241.402467c-17.983522 0-32.594365 14.626202-32.594366 32.593341v264.693811h-19.954501a46.583711 46.583711 0 0 0-46.58371 46.58371v242.253316c0.003072 25.726143 20.857568 46.579615 46.58371 46.583711h19.954501v165.836658c0 17.968164 14.611867 32.594365 32.594366 32.594365h537.795767c17.96714 0 32.593342-14.626202 32.593341-32.594365V728.495433h19.954501c25.726143-0.005119 46.579615-20.858592 46.584735-46.584735V439.658406c0-25.727167-20.85552-46.584735-46.584735-46.584734zM241.402467 128.380885h377.532116V295.138017c0 4.32182 1.717056 8.468556 4.773354 11.522805a16.291039 16.291039 0 0 0 11.523829 4.774377h143.966468v81.646664h-537.795767V128.380885z m410.93228 532.556546h-48.369367l-3.259027-83.782488c-0.969619-26.301566-1.955621-58.115731-1.955621-89.950374h-0.954261a1182.952053 1182.952053 0 0 1-24.346969 84.751084l-26.62921 85.403299h-38.654743l-23.378373-84.744941c-7.129314-25.642184-14.594461-56.818468-19.800918-85.403299h-0.652215c-1.286 29.55445-2.273025 63.321164-3.903051 90.594398l-3.886669 83.130273h-45.784056l13.972963-218.85856h65.904427l21.439134 73.067529c6.810885 25.309421 13.639176 52.580607 18.495465 78.232006h0.986001c6.160718-25.309421 13.6402-54.211656 20.78692-78.566817l23.37735-72.732718h64.617403l11.994817 218.860608z m-451.994177 0l63.315021-110.737293-61.031757-108.121267h56.818468l19.149728 39.934599a696.559425 696.559425 0 0 1 16.581823 36.358168h0.634808c5.191099-13.950438 9.403363-23.687587 14.928248-36.358168l18.521062-39.934599h56.484682l-61.69933 106.833219 64.95119 112.025341h-57.136897l-19.817301-39.625386c-8.114291-15.253844-13.306414-26.622042-19.482489-39.292623h-0.651192c-4.539908 12.679796-10.07196 24.03878-16.885916 39.292623l-18.170893 39.625386h-56.509255z m578.857664 224.561601h-537.795767V728.495433h537.795767v157.003599z m47.871758-224.561601H690.346489V442.077847h49.690179v177.302126h87.041515v41.557458h-0.008191z" p-id="3645"></path></svg>