<?xml version="1.0" standalone="no"?><!DOCTYPE svg PUBLIC "-//W3C//DTD SVG 1.1//EN" "http://www.w3.org/Graphics/SVG/1.1/DTD/svg11.dtd"><svg t="1573995173315" class="icon" viewBox="0 0 1024 1024" version="1.1" xmlns="http://www.w3.org/2000/svg" p-id="5790" xmlns:xlink="http://www.w3.org/1999/xlink" width="200" height="200"><defs><style type="text/css"></style></defs><path d="M512 1024A512 512 0 1 0 512 0a512 512 0 0 0 0 1024zM402.944 283.392H200.96V215.04h153.6a483.712 483.712 0 0 0-35.328-62.976l76.8-12.288c12.288 22.272 24.576 47.616 36.864 75.264h147.456c16.896-26.112 32.256-53.76 45.312-82.176l69.888 24.576c-10.752 20.736-23.04 39.936-35.328 57.6h162.816v68.352H620.288v132.864h98.304l-51.456-26.88c26.112-31.488 46.848-62.976 62.208-95.232l58.368 27.648c-15.36 32.256-36.096 63.744-60.672 94.464h125.184v68.352H171.776V416.256h122.88a636.608 636.608 0 0 0-49.92-99.84l63.744-20.736c18.432 30.72 35.328 62.976 49.92 97.536l-52.992 23.04h97.536V283.392z m147.456 0H472.832v132.864H550.4V283.392z m204.288 243.456v319.488H684.8v-33.024H337.664v33.024H267.776V526.848h486.912zM337.664 752.64H684.8v-52.992H337.664v52.992z m0-110.592H684.8v-55.296H337.664v55.296z" p-id="5791"></path></svg>