<?xml version="1.0" standalone="no"?><!DOCTYPE svg PUBLIC "-//W3C//DTD SVG 1.1//EN"
    "http://www.w3.org/Graphics/SVG/1.1/DTD/svg11.dtd">
<svg t="1573999440915" class="icon" viewBox="0 0 1024 1024" version="1.1" xmlns="http://www.w3.org/2000/svg" p-id="8585"
     width="200" height="200">
    <defs>
        <style type="text/css"></style>
    </defs>
    <path
        d="M512 31.9488L159.9488 384v576c0 17.7152 14.336 31.9488 31.9488 31.9488h640c17.7152 0 31.9488-14.336 31.9488-31.9488V384L512 31.9488z"
        fill="#F0EEE2" p-id="8586"></path>
    <path d="M368.0256 527.9744h287.9488v432.0256H368.0256z" fill="#BBAA9C" p-id="8587"></path>
    <path
        d="M287.9488 736.0512c0-8.8064-7.168-15.9744-15.9744-15.9744h-96.0512c-8.8064 0-15.9744 7.168-15.9744 15.9744s7.168 15.9744 15.9744 15.9744h96.0512c8.9088 0 15.9744-7.168 15.9744-15.9744zM512 463.9744h31.9488c8.8064 0 15.9744-7.168 15.9744-15.9744s-7.168-15.9744-15.9744-15.9744H512c-8.8064 0-15.9744 7.168-15.9744 15.9744s7.168 15.9744 15.9744 15.9744z m0 160.0512h-64c-8.8064 0.2048-15.7696 7.5776-15.5648 16.384 0.2048 8.4992 7.0656 15.36 15.5648 15.5648H512c8.8064-0.2048 15.7696-7.5776 15.5648-16.384-0.2048-8.4992-7.0656-15.36-15.5648-15.5648zM655.9744 896h-96.0512c-8.8064 0-15.9744 7.168-15.9744 15.9744s7.168 15.9744 15.9744 15.9744h96.0512c8.8064 0 15.9744-7.168 15.9744-15.9744s-7.0656-15.9744-15.9744-15.9744z m192-352.0512h-64c-8.8064 0.2048-15.7696 7.5776-15.5648 16.384 0.2048 8.4992 7.0656 15.36 15.5648 15.5648h64c8.8064-0.2048 15.7696-7.5776 15.5648-16.384-0.2048-8.3968-6.9632-15.2576-15.5648-15.5648zM655.9744 335.9744h159.9488c8.8064 0 15.9744-7.168 15.9744-15.9744s-7.168-15.9744-15.9744-15.9744H655.9744c-8.8064 0-15.9744 7.168-15.9744 15.9744s7.168 15.9744 15.9744 15.9744z m-287.9488-128h96.0512c8.8064-0.2048 15.7696-7.5776 15.5648-16.384-0.2048-8.4992-7.0656-15.36-15.5648-15.5648h-96.0512c-8.8064 0.2048-15.7696 7.5776-15.5648 16.384 0.2048 8.4992 6.9632 15.36 15.5648 15.5648z m31.9488 128h-96.0512c-8.8064 0.2048-15.7696 7.5776-15.5648 16.384 0.2048 8.4992 7.0656 15.36 15.5648 15.5648h96.0512c8.8064-0.2048 15.7696-7.5776 15.5648-16.384-0.2048-8.4992-7.0656-15.36-15.5648-15.5648z m384 448H768c-8.8064-0.2048-16.1792 6.7584-16.384 15.5648s6.7584 16.1792 15.5648 16.384h16.7936c8.8064-0.2048 15.7696-7.5776 15.5648-16.384-0.2048-8.4992-7.0656-15.36-15.5648-15.5648z m-415.9488 128h-79.9744c-8.8064 0.2048-15.7696 7.5776-15.5648 16.384 0.2048 8.4992 7.0656 15.36 15.5648 15.5648h79.9744c8.8064 0.2048 16.1792-6.7584 16.384-15.5648s-6.7584-16.1792-15.5648-16.384h-0.8192z"
        fill="#D8D5BA" p-id="8588"></path>
    <path
        d="M1014.5792 489.3696L534.6304 9.4208c-12.4928-12.4928-32.768-12.4928-45.2608 0L9.3184 489.3696l-1.024 1.024c-0.3072 0.3072-0.6144 0.6144-0.8192 1.024l-0.1024 0.1024c-1.2288 1.4336-2.2528 2.9696-3.1744 4.608l-0.3072 0.512-1.2288 2.4576-0.1024 0.3072c-0.2048 0.4096-0.3072 0.8192-0.4096 1.1264l-0.1024 0.3072c-0.1024 0.2048-0.1024 0.4096-0.2048 0.7168-0.2048 0.512-0.3072 1.024-0.4096 1.4336-0.4096 1.2288-0.6144 2.56-0.8192 3.7888v0.2048c-0.1024 0.9216-0.2048 1.9456-0.3072 2.9696-0.3072 0.7168-0.3072 1.4336-0.3072 2.048 0 17.7152 14.336 32.0512 32.0512 31.9488 1.6384 0 3.1744-0.1024 4.8128-0.4096h0.1024l3.072-0.6144 0.3072-0.1024 1.2288-0.3072 0.2048-0.1024c0.9216-0.3072 1.8432-0.6144 2.6624-1.024l0.1024-0.1024c3.7888-1.6384 7.168-3.8912 10.0352-6.7584l73.3184-73.3184v498.7904c0 35.328 28.672 64 64 64h640c35.328 0 64-28.672 64-64V461.2096l73.4208 73.4208c12.4928 12.4928 32.768 12.4928 45.2608 0s12.4928-32.768 0-45.2608z m-662.528 470.6304H192V896h159.9488v64z m287.9488 0H384V543.9488h256v416.0512z m192 0H671.9488V896h159.9488v64z m0-95.9488H671.9488V543.9488c0-17.7152-14.336-31.9488-31.9488-31.9488H384c-17.7152 0-31.9488 14.336-31.9488 31.9488v320H192V397.2096L512 77.2096l320 320v466.8416z m-256-96.0512c8.8064 0 15.9744-7.168 15.9744-15.9744s-7.168-15.9744-15.9744-15.9744-15.9744 7.168-15.9744 15.9744 7.168 15.9744 15.9744 15.9744z"
        fill="#5F4E56" p-id="8589"></path>
</svg>
