<?xml version="1.0" standalone="no"?><!DOCTYPE svg PUBLIC "-//W3C//DTD SVG 1.1//EN" "http://www.w3.org/Graphics/SVG/1.1/DTD/svg11.dtd"><svg t="1606396624046" class="icon" viewBox="0 0 1024 1024" version="1.1" xmlns="http://www.w3.org/2000/svg" p-id="21934" xmlns:xlink="http://www.w3.org/1999/xlink" width="200" height="200"><defs><style type="text/css"></style></defs><path d="M758.8 982l-14-253.2c-1.2-20-15.2-36.8-34.4-41.6l-89.6-22.4-54-26.8-24.8 51.2c-2 4-5.6 6.4-10 6.4h-38.8c-4.4 0-8.4-2.4-10-6.4l-22.8-50.8-54 26.8-90.4 22c-19.2 4.8-33.2 21.6-34.4 41.6l-14 253.2c-0.8 16.8 12 30.8 28.4 32H728.4c16.8 0 30.4-13.6 30.4-30.4v-1.6z" fill="#60BAE2" p-id="21935"></path><path d="M620.4 664.4l-26.8 65.6c-2 5.2-8 7.6-12.8 5.6-1.6-0.8-2.8-1.6-4-2.8l-35.2-43.6 24.8-51.2 54 26.4zM432.4 730.4c2 5.2 8 7.6 12.8 5.6 1.6-0.8 2.8-1.6 4-2.8l34-42.4c-0.4-0.4-0.8-1.2-0.8-1.6l-22.8-50.8-36 17.6-18 8.8 26.8 65.6zM790.4 654l55.6 14c-1.2-0.4-2-1.6-2-2.4l-11.2-32-32.8 16.4-12 2.8 2.4 1.2zM1014 833.2l-8-144.4c-0.8-12-9.2-22.4-20.8-25.6l-54.8-13.6-32.8-16.4-11.2 32c-0.8 2-2.4 3.2-4.4 3.2H848l8 2c14 3.6 24.4 16 25.2 30.4l9.2 161.6h96c15.2 0 27.6-12.4 27.6-27.6v-1.6zM144.8 700.8c0.8-14.4 11.2-26.8 25.2-30.4l65.6-16.4 2-0.8-13.2-3.2-32.8-16.4-11.2 32c-0.8 2-2.4 3.2-4.4 3.2h-34c-2 0-3.6-1.2-4.4-3.2l-11.2-32-32.8 16.4-54.8 13.6c-11.6 2.8-20.4 13.2-20.8 25.6l-8 144.4c-0.8 15.2 10.8 28.4 26 29.2h100l8.8-162z" fill="#E9E9EA" p-id="21936"></path><path d="M890.8 874l-9.6-173.2c-0.8-14.4-10.8-26.8-25.2-30.4l-65.6-16.4-39.6-19.6-13.2 38.4c-0.8 2.4-2.8 3.6-5.2 3.6h-40.8c-2.4 0-4.4-1.6-5.2-3.6l-13.2-38.4-39.6 19.6-22.8 5.6 9.6 4.8 89.6 22.4c19.2 4.8 33.2 21.6 34.4 41.6l10 180.4h102.8c18.4 0 33.2-14.8 33.2-33.2 0.4-0.4 0.4-0.8 0.4-1.6zM281.6 728.8c1.2-20 15.2-36.8 34.4-41.6l89.6-22.4 9.6-4.8-23.2-6-39.6-19.6-13.2 38.4c-0.8 2.4-2.8 3.6-5.2 3.6H293.6c-2.4 0-4.4-1.6-5.2-3.6l-13.2-38.4-39.6 19.6-65.6 16.4c-14 3.6-24.4 16-25.2 30.4l-9.6 173.2c-1.2 18.4 13.2 34 31.6 35.2H272l9.6-180.4z" fill="#E9E9EA" p-id="21937"></path><path d="M800.4 463.2c-2 0-3.6 0-5.6 0.4 0 2 0.4 3.6 0.4 5.6v58.4c0 2 0 3.6-0.4 5.6 19.2 3.2 37.2-10 40.4-29.2s-10-37.2-29.2-40.4c-1.6 0-3.6-0.4-5.6-0.4zM710.8 612c-13.2 0-26-3.2-37.6-8.8v31.2l13.2 38.4c0.8 2.4 2.8 3.6 5.2 3.6h40.8c2.4 0 4.4-1.6 5.2-3.6l13.2-38.4v-32.4c-12.4 6.8-26 10-40 10z" fill="#F9D0B4" p-id="21938"></path><path d="M795.2 451.2c0-2.4-2-4.4-4.4-4.4-35.2-1.2-53.6-14.8-60.8-22-1.6-1.6-4.8-1.6-6.4 0l-0.4 0.4c-10.4 13.2-24.4 23.2-40.8 28-0.8 26.4-22.4 47.6-49.2 46.8-2.4 0-4.8-0.4-6.8-0.8 0 2-0.4 3.6-0.4 5.6v22.4c0 46.4 38 84.4 84.4 84.4 46.4 0 84.4-38 84.4-84.4V452c0.4 0 0.4-0.4 0.4-0.8zM938.8 490.8c-1.6 0-3.2 0-4.8 0.4V549.2c16 2.4 31.2-8.4 33.6-24.4 2.4-16-8.4-31.2-24.4-33.6-1.2-0.4-2.8-0.4-4.4-0.4zM864 614.8c-10.8 0-21.6-2.4-31.6-7.6v26l11.2 32c0.8 2 2.4 3.2 4.4 3.2h34c2 0 3.6-1.2 4.4-3.2l11.2-32v-27.2c-10.4 6-22 8.8-33.6 8.8z" fill="#F9D0B4" p-id="21939"></path><path d="M934.4 480.4c0-2-1.6-3.6-3.6-3.6-29.2-0.8-44.8-12.4-50.4-18.4-1.6-1.6-4-1.6-5.2 0 0 0 0 0.4-0.4 0.4-10.4 13.2-25.2 22.4-41.6 25.2 8 17.6 0 38.4-17.6 46.4-6.4 2.8-13.2 3.6-20 2.4-0.4 3.6-0.8 7.2-1.6 10.8 0 38.8 31.6 70.4 70.4 70.4 38.8 0 70.4-31.6 70.4-70.4v-62.8c-0.4 0.4-0.4 0-0.4-0.4zM228.4 527.6v-58.4c0-2 0-4 0.4-5.6-19.2-3.2-37.6 9.6-40.8 28.8s9.6 37.6 28.8 40.8c4 0.8 7.6 0.8 11.6 0v-5.6z" fill="#F9D0B4" p-id="21940"></path><path d="M397.2 527.6v-18c-0.4-3.2-0.8-6.8-1.2-10-26.4 4.4-51.2-13.6-55.2-40-1.6-8.8-0.4-18 2.8-26-4-2.4-8-5.6-11.6-8.8-1.6-1.6-4.8-1.6-6.4 0l-0.4 0.4c-30.8 38.8-76.4 33.2-91.6 30-2.4-0.4-4.8 1.2-5.2 3.6v68.8c0 46.8 38 84.4 84.4 84.4s84.4-37.6 84.4-84.4z" fill="#F9D0B4" p-id="21941"></path><path d="M312.8 612c-13.2 0-26-3.2-37.6-8.8v31.2l13.2 38.4c0.8 2.4 2.8 3.6 5.2 3.6h40.8c2.4 0 4.4-1.6 5.2-3.6l13.2-38.4v-32.4c-12.4 6.8-26 10-40 10zM87.6 544.4V496v-4.8c-16-2.8-31.2 8-34 24-2.8 16 8 31.2 24 34 3.2 0.4 6.4 0.4 10 0v-4.8zM222.8 533.6c-19.6 0-35.2-15.6-35.2-35.2 0-10 4-19.2 11.2-26-9.2-2.8-17.6-7.6-24.8-14-1.6-1.6-4-1.6-5.2 0 0 0 0 0.4-0.4 0.4-25.6 32.4-63.6 27.6-76.4 25.2-2-0.4-4 0.8-4.4 2.8V544.4c0 38.8 31.6 70.4 70.4 70.4s70.4-31.6 70.4-70.4v-11.2c-1.6 0.4-3.6 0.4-5.6 0.4z" fill="#F9D0B4" p-id="21942"></path><path d="M158 614.8c-10.8 0-21.6-2.4-31.6-7.6v26l11.2 32c0.8 2 2.4 3.2 4.4 3.2H176c2 0 3.6-1.2 4.4-3.2l11.2-32v-27.2c-10.4 6-22 8.8-33.6 8.8zM634.4 403.6c-2.4 0-5.2 0.4-7.6 0.8 0 2.4 0.4 5.2 0.4 8V492c0 2.8 0 5.2-0.4 7.6 26.4 4.4 51.2-13.6 55.2-40 4.4-26.4-13.6-51.2-40-55.2-2.4-0.8-4.8-0.8-7.6-0.8zM395.6 491.6V412c0-2.8 0-5.2 0.4-8-26.4-4.4-51.2 13.2-55.6 39.6s13.2 51.2 39.6 55.6c5.2 0.8 10.8 0.8 16 0 0-2.4-0.4-4.8-0.4-7.6z" fill="#F9D0B4" p-id="21943"></path><path d="M528.8 351.6c-42.4 53.2-104.4 45.6-125.6 41.2-3.2-0.8-6.8 1.6-7.2 4.8V492c0 63.6 52 115.6 115.6 115.6 63.6 0 115.6-52 115.6-115.6V388.8v-2c0-3.2-2.8-6-6-6-48-1.6-73.2-20.4-83.2-30-2.4-2.4-6.4-2.4-8.8 0 0 0.4-0.4 0.4-0.4 0.8z" fill="#F9D0B4" p-id="21944"></path><path d="M511.6 607.2c-18 0-35.6-4-51.6-12.4v42.8l22.8 50.8c1.6 4 5.6 6.4 10 6.4h38.8c4.4 0 8-2.4 10-6.4l24.8-51.2v-44.4c-16.8 9.6-35.6 14.4-54.8 14.4z" fill="#F9D0B4" p-id="21945"></path><path d="M776.8 361.6c-8.8 0-17.2 2.4-24.8 6.8-8.8-14.4-24.4-23.6-41.2-23.6h-24.8c-6 0-12 0.8-18 2v70.4c9.6 9.2 14.8 21.6 14.8 34.8v1.6c16-5.2 30.4-14.8 40.8-28 1.6-2 4.4-2.4 6.4-0.8l0.4 0.4c7.2 6.8 25.6 20.8 60.8 22 2.4 0 4.4 2 4.4 4.4V464c10.8-1.6 22 1.6 30 9.6v-63.6c-0.8-26.8-22-48.4-48.8-48.4z" fill="#6D6C6B" p-id="21946"></path><path d="M919.2 406c-7.2 0-14.4 2-20.4 5.6-7.2-12-20.4-19.6-34.4-19.6h-20.8c-6.8 0-14 1.2-20.8 3.2 1.6 4.8 2.4 9.6 2.4 14.8v63.6c3.2 3.2 6 7.2 8 11.2 16.4-3.2 31.2-12 41.6-25.2 1.2-1.6 3.6-2 5.2-0.8 0 0 0.4 0 0.4 0.4 6 6 21.2 17.2 50.4 18.4 2 0 3.6 1.6 3.6 3.6V492c9.2-1.6 18.4 1.6 24.8 8v-52.8c0-23.2-18-41.2-40-41.2zM325.2 425.2c1.6-2 4.4-2.4 6.4-0.8l0.4 0.4c3.6 3.2 7.2 6.4 11.6 8.8 3.2-7.6 8-14.4 14.4-19.6v-48c-1.2 0.8-2.8 1.2-4 2-8.8-14.4-24.4-23.6-41.2-23.6H288c-48 0-87.2 39.2-87.2 87.2v39.2c7.6-6 17.6-8.8 27.6-7.2v-4c0-2.4 2-4.4 4.4-4.4h0.8c15.6 3.2 60.8 8.8 91.6-30z" fill="#6D6C6B" p-id="21947"></path><path d="M200.8 471.2V432c0-8.4 1.2-16.8 3.6-25.2-4.4 0.8-8.4 2.4-12 4.8-7.2-12-20.4-19.6-34.4-19.6h-20.8c-40 0-72.4 32.4-72.8 72.8v32.4c6.4-5.2 14.8-7.2 22.8-6v-3.2c0-2 1.6-3.6 4-3.6h0.8c12.8 2.8 50.8 7.2 76.4-25.2 1.2-1.6 3.6-2 5.2-0.8 0 0 0.4 0 0.4 0.4 7.2 6.4 15.6 11.2 24.8 14 0.8-0.8 1.2-1.2 2-1.6zM388.4 403.6c2.4 0 4.8 0.4 7.6 0.4v-5.6c0-3.6 2.8-6 6.4-6h1.2c20.8 4.4 83.2 12 125.6-41.2 2-2.8 6-3.2 8.8-1.2l0.4 0.4c9.6 9.6 35.2 28.4 83.2 30 3.2 0 6 2.8 6 6v17.6c14.8-2.4 30 2.4 40.8 12.8V330.4c0-36.4-29.6-66-66-66-12 0-23.6 3.2-33.6 9.6-12-20-33.2-32.4-56.8-32.4h-34c-66 0-119.2 53.6-119.2 119.2v53.6c8-7.2 18.8-10.8 29.6-10.8z" fill="#6D6C6B" p-id="21948"></path><path d="M393.6 147.6c-18-3.6-31.6-17.2-35.2-35.2 0-0.4-0.4-0.8-0.8-0.8s-0.4 0.4-0.8 0.8c-3.6 18-17.2 31.6-35.2 35.2-0.4 0-0.8 0.4-0.8 0.8s0.4 0.4 0.8 0.8c18 3.6 31.6 17.2 35.2 35.2 0 0.4 0.4 0.8 0.8 0.8s0.4-0.4 0.8-0.8c3.6-18 17.2-31.6 35.2-35.2 0.4 0 0.8-0.4 0.8-0.8l-0.8-0.8z" fill="#FCD770" p-id="21949"></path><path d="M824.8 274h-34.8c-5.6 0-10-4.4-10-10s4.4-10 10-10h34.8c5.6 0 10 4.4 10 10s-4.4 10-10 10z" fill="#F75C64" p-id="21950"></path><path d="M807.6 291.2c-5.6 0-10-4.4-10-10v-34.8c0-5.6 4.4-10 10-10s10 4.4 10 10v34.8c0 5.6-4.4 10-10 10z" fill="#F75C64" p-id="21951"></path><path d="M697.6 194.8c-2.8 0-5.2-1.2-7.2-2.8-0.4-0.4-0.8-0.8-1.2-1.6-0.4-0.4-0.8-1.2-0.8-1.6-0.4-0.8-0.4-1.2-0.4-2s-0.4-1.2-0.4-2 0-1.2 0.4-2c0-0.8 0.4-1.2 0.4-2 0.4-0.8 0.4-1.2 0.8-1.6 0.4-0.4 0.8-1.2 1.2-1.6 2.8-2.8 7.2-3.6 10.8-2 0.4 0.4 1.2 0.4 1.6 0.8 0.4 0.4 1.2 0.8 1.6 1.2 0.4 0.4 0.8 0.8 1.2 1.6 0.4 0.4 0.8 1.2 0.8 1.6 0.4 0.4 0.4 1.2 0.4 2s0 1.2 0.4 2c0 0.8 0 1.2-0.4 2 0 0.8-0.4 1.2-0.4 2-0.4 0.8-0.4 1.2-0.8 1.6-0.4 0.4-0.8 1.2-1.2 1.6-0.4 0.4-0.8 0.8-1.6 1.2-0.4 0.4-1.2 0.8-1.6 0.8-0.8 0.4-1.2 0.4-2 0.4-0.4 0.4-0.8 0.4-1.6 0.4z" fill="#FCD770" p-id="21952"></path><path d="M529.2 37.2h-34.8c-5.6 0-10-4.4-10-10s4.4-10 10-10h34.8c5.6 0 10 4.4 10 10s-4.4 10-10 10z" fill="#60BAE2" p-id="21953"></path><path d="M512 54.8c-5.6 0-10-4.4-10-10V10c0-5.6 4.4-10 10-10s10 4.4 10 10v34.8c0 5.6-4.4 10-10 10z" fill="#60BAE2" p-id="21954"></path><path d="M142.4 251.2h-2c-0.8 0-1.2-0.4-2-0.4-0.8-0.4-1.2-0.4-1.6-0.8-0.4-0.4-1.2-0.8-1.6-1.2-2-2-2.8-4.4-2.8-7.2v-2c0-0.8 0.4-1.2 0.4-2 0.4-0.8 0.4-1.2 0.8-1.6 0.4-0.4 0.8-1.2 1.2-1.6 0.4-0.4 0.8-0.8 1.6-1.2 0.4-0.4 1.2-0.8 1.6-0.8 2.4-1.2 5.2-1.2 7.6 0 0.8 0.4 1.2 0.4 1.6 0.8 1.2 0.8 2 1.6 2.8 2.8 0.4 0.4 0.8 1.2 0.8 1.6 0.4 0.8 0.4 1.2 0.4 2s0.4 1.2 0 2c0 2.8-1.2 5.2-2.8 7.2-0.4 0.4-0.8 0.8-1.6 1.2-0.4 0.4-1.2 0.8-1.6 0.8-0.8 0.4-1.2 0.4-2 0.4h-0.8z" fill="#6DCC6D" p-id="21955"></path><path d="M800.4 543.6c-2.4 0-4.8-0.4-7.2-0.8-5.2-0.8-8.8-5.2-8.4-10.4V469.2 464c-0.4-5.2 3.2-9.6 8.4-10.4 24.8-4 48 12.8 52 37.6s-12.8 48-37.6 52c-2 0.4-4.4 0.4-7.2 0.4z m4.8-70v49.6c13.6-2.4 22.8-15.6 20.4-29.6-2-10-10-18-20.4-20zM810.8 919.2c-5.6 0-10-4.4-10-10V768c0-5.6 4.4-10 10-10s10 4.4 10 10v141.2c0 5.6-4.4 10-10 10zM732.4 686.4h-40.8c-6.8 0-12.4-4-14.8-10.4l-13.2-38.4c-0.4-1.2-0.4-2-0.4-3.2v-31.2c0-5.6 4.4-10 10-10 1.6 0 3.2 0.4 4.4 1.2 10.4 5.2 21.6 8 33.2 8 12.4 0 24.4-3.2 35.2-8.8 4.8-2.8 10.8-0.8 13.6 4 0.8 1.6 1.2 3.2 1.2 4.8v32.4c0 1.2 0 2.4-0.4 3.2l-13.2 38.4c-2.4 5.6-8.4 10-14.8 10z m-37.6-20h34.4l11.6-33.6v-15.6c-18.8 6.4-38.8 6.4-58 0.8v14.8l12 33.6z" fill="#231F20" p-id="21956"></path><path d="M825.2 483.2c-2.4 0-5.2-1.2-6.8-2.8-5.6-5.6-13.6-8-21.6-6.8-5.6 0.8-10.4-2.8-11.6-8.4v-8.8c-29.6-2-47.6-12.4-57.6-20.4-11.2 12.8-25.6 22-41.6 27.2-5.2 1.6-10.8-1.2-12.4-6.4-0.4-1.2-0.4-2-0.4-3.2v-1.6c0-10.4-4.4-20.4-11.6-27.6-2-2-3.2-4.4-3.2-7.2V346.8c0-4.8 3.2-8.8 8-9.6 6.8-1.6 13.2-2 20-2h24.8c17.2 0 33.6 7.6 44.4 20.8 6.8-2.8 14-4 21.6-4 32 0 58.4 26 58.4 58.4v63.6c-0.4 4.8-5.2 9.2-10.4 9.2z m-20-29.6c3.2 0.4 6.8 1.2 10 2v-46c0-21.2-16.8-38-38-38.4-6.8 0-14 2-20 5.6-4.8 2.8-10.8 1.2-13.6-3.6-6.8-11.6-19.2-18.8-32.8-18.8h-24.8c-2.8 0-5.2 0-8 0.4v58c6.8 7.2 11.2 16.4 13.2 26 9.6-4.8 17.6-11.6 24.4-20 4.8-6.4 14-7.2 20.4-2.4l1.2 1.2c5.6 5.6 22 18 54 19.2 7.6 0.4 14 6.4 14 14.4v2.4z" fill="#231F20" p-id="21957"></path><path d="M710.8 622c-52 0-94.4-42.4-94.4-94.4v-22.4-1.2c0.4-1.6 0.4-3.6 0.4-5.2 0.4-5.6 5.2-9.6 10.8-9.2h0.8c20.8 3.6 40.4-10.4 44-30.8 0.4-2 0.4-3.6 0.4-5.6 0-4.4 2.8-8 7.2-9.2 14-4.4 26.8-13.2 36-24.8 4.8-6.4 14-7.2 20.4-2.4l1.2 1.2c5.6 5.6 22 18 54 19.2 7.6 0.4 14 6.4 14 14.4v76.8c-0.4 51.2-42.8 93.6-94.8 93.6z m-74.4-112v17.6c0 41.2 33.2 74.4 74.4 74.4s74.4-33.2 74.4-74.4v-71.2c-29.6-2-47.6-12.4-57.6-20.4-9.6 10.8-22 19.6-35.6 24.8-4 27.6-27.6 48.4-55.6 49.2z m154-53.2zM938.8 559.6c-2 0-4.4 0-6.4-0.4-5.2-0.8-8.8-5.2-8.4-10.4V496v-4c-0.4-5.2 3.2-9.6 8.4-10.4 21.6-3.6 41.6 11.2 45.2 32.8 3.6 21.6-11.2 41.6-32.8 45.2-1.6-0.4-4 0-6 0z m5.6-58v37.2c10.4-3.2 16-14 13.2-24-2-6.4-6.8-11.2-13.2-13.2zM947.2 872.4c-5.6 0-10-4.4-10-10v-118c0-5.6 4.4-10 10-10s10 4.4 10 10v118c0 5.6-4.4 10-10 10zM882 678.4H848c-6.4 0-11.6-4-14-10l-11.2-32c-0.4-1.2-0.4-2-0.4-3.2v-26c0-5.6 4.4-10 10-10 1.6 0 3.2 0.4 4.4 1.2 8.4 4.4 17.6 6.4 26.8 6.4 10 0 20-2.4 28.8-7.2 4.8-2.8 10.8-0.8 13.6 4 0.8 1.6 1.2 3.2 1.2 4.8v27.2c0 1.2 0 2.4-0.4 3.2l-11.2 32c-2 5.6-7.6 9.6-13.6 9.6z m-30.4-20h26.4l9.2-26.8v-10.4c-14.4 4.4-30 4.8-44.8 0.8v10l9.2 26.4z" fill="#231F20" p-id="21958"></path><path d="M845.6 678c-0.8 0-1.6 0-2.4-0.4l-55.6-14c-0.8 0-1.2-0.4-2-0.8l-2.4-1.2c-4.8-2.4-6.8-8.4-4.4-13.2 1.2-2.8 3.6-4.4 6.4-5.2l10.8-2.8 32-15.6c4.8-2.4 10.8-0.4 13.2 4.4 0 0.4 0.4 0.8 0.4 1.2l10.4 30.4c4 3.6 4.4 10 0.8 14-1.6 2-4 3.2-7.2 3.2z m-26-27.2l9.2 2.4-2-6-7.2 3.6z" fill="#231F20" p-id="21959"></path><path d="M986.4 872.4h-96c-5.2 0-9.6-4-10-9.6l-9.2-161.6c-0.4-10.4-7.6-18.8-17.6-21.2l-8-2c-5.2-1.2-8.8-6.8-7.2-12 1.2-4.4 5.2-7.6 9.6-7.6h30l10-28.4c2-5.2 7.6-8 12.8-6 0.4 0 0.8 0.4 1.2 0.4l32 15.6 53.6 13.6c16 4 27.6 18 28.4 34.4l8 144.4c1.2 20.8-14.8 38.8-35.6 40h-2z m-86.8-20h86.8c10 0 17.6-8 17.6-17.6v-0.8l-8-144.4c-0.4-7.6-6-14.4-13.6-16.4l-54.8-13.6c-0.8 0-1.2-0.4-2-0.8l-22.8-11.2-7.2 21.2c-2 5.2-6.4 9.2-12 9.6 4.4 6.4 6.8 14 7.6 22l8.4 152zM959.2 508.8c-2.4 0-5.2-1.2-6.8-2.8-4.4-4.4-10.4-6-16.4-5.2-5.6 0.8-10.4-2.8-11.6-8.4v-6c-16.8-0.8-32.8-6.4-46.4-16.4-11.6 12.4-26.8 20.8-43.2 24-4.8 0.8-9.2-1.6-11.2-5.6-1.2-3.2-3.2-5.6-5.6-8-2-2-3.2-4.8-2.8-7.6v-62.8c0-4-0.8-8-2-11.6-1.6-5.2 1.2-10.8 6.4-12.4h0.4c7.6-2.4 15.6-3.6 23.6-3.6h20.8c14.4 0 28 6.4 37.6 17.2 5.6-2 11.6-3.2 17.6-3.2 27.6 0 50 22.4 50.4 50.4v52.8c-0.8 4.8-5.2 9.2-10.8 9.2z m-14.8-27.6c1.6 0.4 3.2 0.4 4.8 1.2v-36c0-16.8-13.2-30-30-30.4-5.6 0-10.8 1.6-15.6 4.4-4.8 2.8-10.8 1.2-13.6-3.6-5.6-9.2-15.2-14.8-26-14.8h-20.8c-2.8 0-6 0.4-8.8 0.8 0.4 2.4 0.4 4.8 0.4 7.2v59.6c0.8 1.2 2 2.4 2.8 3.6 11.6-3.6 21.6-10.8 28.8-20 4.8-6 13.6-6.8 19.2-2.4 0.4 0.4 0.8 0.8 1.2 0.8 4.4 4.4 17.6 14.8 44 15.2 7.2 0.4 13.2 6 13.2 13.6l0.4 0.8z" fill="#231F20" p-id="21960"></path><path d="M864 624.8c-44.4 0-80.4-36-80.4-80.4v-2c0.8-3.2 1.2-6.4 1.2-9.6 0.4-5.6 5.2-9.6 10.8-9.2h0.8c1.2 0.4 2.8 0.4 4 0.4 14 0 25.2-11.2 25.2-25.2 0-3.6-0.8-6.8-2-10-2.4-5.2 0-10.8 5.2-13.2 0.8-0.4 1.2-0.4 2-0.8 14-2.8 26.8-10.4 35.6-22 4.8-6 13.6-6.8 19.2-2.4 0.4 0.4 0.8 0.8 1.2 0.8 4.4 4.4 17.6 14.8 44 15.2 7.2 0.4 13.2 6 13.2 13.6v64c0.4 44.8-35.6 80.8-80 80.8z m-60.4-79.6c0.4 33.2 27.6 60.4 60.8 60 33.2-0.4 60.4-27.6 60-60.8v-58c-16.8-0.8-32.8-6.4-46.4-16.4-8.8 9.6-20.4 17.2-32.8 21.2 4 24.8-12.8 48-37.6 52-1.2 0.4-2.4 0.4-4 0.4v1.6zM222.8 543.6c-24.8 0-45.2-20.4-45.2-45.2s20.4-45.2 45.2-45.2c2.4 0 4.8 0 7.2 0.4 5.2 0.8 8.8 5.2 8.4 10.4v68.4c0.4 5.2-3.2 9.6-8.4 10.4-2.4 0.8-4.8 0.8-7.2 0.8z m-4.4-70c-13.6 2.4-22.8 15.6-20.4 29.6 2 10.4 10 18.4 20.4 20.4v-50z" fill="#231F20" p-id="21961"></path><path d="M312.8 622c-52 0-94.4-42.4-94.4-94.4v-68c0-8 6.4-14.4 14.4-14.4 1.2 0 2 0 2.8 0.4 15.6 3.2 54.8 7.2 81.6-26.4 4.8-6.4 14-7.2 20.4-2.4l1.2 1.2c2.8 2.8 6.4 5.2 9.6 7.2 4.4 2.4 6 7.6 4 12.4-8 19.2 0.8 41.6 20.4 50 6.8 2.8 14 3.6 21.2 2.4 5.6-0.8 10.4 2.8 11.6 8.4v0.8c0.4 3.2 0.4 6.4 1.2 9.2v19.6c0.4 51.6-42 94-94 94z m-74.4-155.6V528c0 41.2 33.2 74.4 74.4 74.4s74.4-33.2 74.4-74.4V510.4c-32-0.8-57.6-27.2-57.2-59.6 0-4.4 0.8-8.8 1.6-12.8-0.8-0.8-1.6-1.2-2.4-2-30 34-71.6 33.2-90.8 30.4z" fill="#231F20" p-id="21962"></path><path d="M200.8 480.8c-5.6 0-10-4.4-10-10V432c0-53.6 43.6-97.2 97.2-97.2h24.8c17.6 0 34 8 45.2 21.6 2 0 4 0.4 5.6 1.6 2.8 2 4.8 5.2 4.8 8.4v48c0 3.2-1.2 6-3.6 8-5.2 4-9.2 9.2-11.6 15.2-2 5.2-8 7.6-13.2 5.6-0.4 0-0.8-0.4-1.2-0.8-3.2-2-6-4-9.2-6.4-30.8 34.4-72.4 33.2-91.6 30.4-1.2 4.8-6 8-11.2 7.2-6.8-1.2-14 0.8-19.6 5.2-2 1.6-4 2-6.4 2zM288 354.8c-42.8 0-77.2 34.4-77.2 77.2v22.8c2.8-0.8 6-1.2 8.8-1.6 2.8-6 9.6-9.2 16-8 15.6 3.2 54.8 7.2 81.6-26.4 4.8-6.4 14-7.2 20.4-2.4l1.2 1.2 1.2 1.2c2.4-3.2 4.8-6.4 8-9.2v-33.2c-1.2-0.8-2-1.6-2.8-2.8-6.8-11.6-19.2-18.8-32.8-18.8H288z m45.2 76.4z m-7.6-6zM212.8 919.2c-5.6 0-10-4.4-10-10V768c0-5.6 4.4-10 10-10s10 4.4 10 10v141.2c0 5.6-4.4 10-10 10zM334.4 686.4H293.6c-6.8 0-12.4-4-14.8-10.4l-13.2-38.4c-0.4-1.2-0.4-2-0.4-3.2v-31.2c0-5.6 4.4-10 10-10 1.6 0 3.2 0.4 4.4 1.2 10.4 5.2 21.6 8 33.2 8 12.4 0 24.4-3.2 35.2-8.8 4.8-2.8 10.8-0.8 13.6 4 0.8 1.6 1.2 3.2 1.2 4.8v32.4c0 1.2 0 2.4-0.4 3.2l-13.2 38.4c-2.4 5.6-8.4 10-14.8 10z m-37.6-20h34.4l11.6-33.6v-15.6c-18.8 6.4-38.8 6.4-58 0.8v14.8l12 33.6zM83.2 559.6c-21.6 0-39.2-17.6-39.2-39.2s17.6-39.2 39.2-39.2c2 0 4.4 0 6.4 0.4 5.2 0.8 8.8 5.2 8.4 10.4v56.4c0.4 5.2-3.2 9.6-8.4 10.4-2.4 0.4-4.4 0.8-6.4 0.8z m-5.6-58c-10.4 3.2-16 14-13.2 24 2 6.4 6.8 11.2 13.2 13.2v-37.2z" fill="#231F20" p-id="21963"></path><path d="M158 624.8c-44.4 0-80.4-36-80.4-80.4v-56.8-0.4c0-7.6 6.4-13.6 14-13.6 0.8 0 1.6 0 2.4 0.4 12.8 2.8 44.8 6 66.4-21.6 4.8-6 13.6-6.8 19.2-2.4 0.4 0.4 0.8 0.8 1.2 0.8 6 5.6 12.8 9.6 20.8 11.6 5.2 1.6 8 7.2 6.4 12.4-0.4 1.6-1.6 3.2-2.8 4.4-5.2 4.8-8 11.6-8 18.4 0 14 10.8 25.2 24.8 25.2 1.6 0 3.2 0 4.4-0.4 5.6-0.8 10.4 2.8 11.6 8.4V543.6c0.4 45.2-35.6 81.2-80 81.2z m-60.4-129.6v49.2c0 33.2 27.2 60.4 60.4 60.4s60.4-27.2 60.4-60.4v-0.8c-24.8-2.4-43.2-24.4-40.8-49.2 0.4-6 2.4-12 5.2-17.2-4-2-7.6-4.4-10.8-6.8-24.8 26.4-57.6 26.8-74.4 24.8z" fill="#231F20" p-id="21964"></path><path d="M64.8 507.2c-5.6 0-10-4.4-10-10v-32.4c0-45.6 37.2-82.8 82.8-82.8h20.8c14.4 0 28 6.4 37.6 17.2 2-0.8 4.4-1.6 6.8-2 5.2-1.2 10.8 2 12 7.6 0.4 1.6 0.4 3.6 0 5.2-2 7.2-3.2 14.8-3.2 22v39.2c0 3.2-1.2 6-3.6 8l-1.2 1.2c-2.8 2.4-6.4 3.2-10 2-8.4-2.8-16.4-6.8-23.6-12-25.2 27.2-58.8 27.2-75.2 24.8-1.6 4.4-6.4 6.8-10.8 6-5.2-0.8-10.8 0.4-15.2 4-2.8 1.2-4.8 2-7.2 2z m72.8-105.2c-34.8 0-62.8 28-62.8 62.8v17.2c1.6-0.4 3.2-0.4 4.8-0.8 2.8-5.2 8.8-8 14.8-6.8 12.8 2.8 44.8 6 66.4-21.6 4.8-6 13.6-6.8 19.2-2.4 0.4 0.4 0.8 0.8 1.2 0.8 2.8 2.8 6 5.2 9.6 6.8V432c0-3.6 0-6.8 0.4-10.4-3.2-0.4-5.6-2-7.2-4.8-5.6-9.2-15.2-14.8-26-14.8h-20.4z m63.2 69.2zM74.8 872.4c-5.6 0-10-4.4-10-10v-118c0-5.6 4.4-10 10-10s10 4.4 10 10v118c0 5.6-4.4 10-10 10zM176 678.4h-34c-6.4 0-11.6-4-14-10l-11.2-32c-0.4-1.2-0.4-2-0.4-3.2v-26c0-5.6 4.4-10 10-10 1.6 0 3.2 0.4 4.4 1.2 8.4 4.4 17.6 6.4 26.8 6.4 10 0 20-2.4 28.8-7.2 4.8-2.8 10.8-0.8 13.6 4 0.8 1.6 1.2 3.2 1.2 4.8v27.2c0 1.2 0 2.4-0.4 3.2l-11.2 32c-1.6 5.6-7.2 9.6-13.6 9.6z m-30-20h26.4l9.2-26.8v-10.4c-14.4 4.4-30 4.8-44.8 0.8v10l9.2 26.4z" fill="#231F20" p-id="21965"></path><path d="M136 872.4H37.6c-20.8 0-37.6-16.8-37.6-37.6v-2l8-144.4c0.8-16.4 12.4-30.4 28.4-34.4l53.6-13.6 32-15.6c4.8-2.4 10.8-0.4 13.2 4.4 0 0.4 0.4 0.8 0.4 1.2l10 28.4H172l10-28.4c2-5.2 7.6-8 12.8-6 0.4 0 0.8 0.4 1.2 0.4l32 15.6 12 3.2c5.2 1.2 8.8 6.8 7.2 12-0.8 2.8-2.8 5.2-5.2 6.4l-2 0.8c-0.8 0.4-1.2 0.4-2 0.8L172.4 680c-10 2.4-17.2 11.2-17.6 21.2l-9.2 161.6c0 5.6-4.4 9.6-9.6 9.6z m-15.2-225.2l-22.8 11.2c-0.8 0.4-1.2 0.4-2 0.8l-54.8 13.6c-7.6 2-13.2 8.4-13.6 16.4l-8 144.4c-0.4 10 6.8 18.4 16.8 18.8h89.2l8.4-152.4c0.4-8 2.8-15.6 7.2-22-6.4 0-11.6-4-14-10l-6.4-20.8z m76.4 0l-2.4 6.4 10-2.4-7.6-4zM634.4 510c-3.2 0-6.4-0.4-9.2-0.8-5.2-0.8-8.8-5.2-8.4-10.4 0-2.4 0.4-4.8 0.4-7.2V412c0-2.4 0-4.8-0.4-7.2-0.4-5.2 3.2-9.6 8.4-10.4 31.6-5.2 61.6 16.4 66.8 48.4 5.2 31.6-16.4 61.6-48.4 66.8-2.8 0.4-6 0.4-9.2 0.4z m2.8-96.4v76.4c21.2-1.6 37.2-19.6 35.6-40.8-1.6-19.2-16.8-34.4-35.6-35.6zM388.4 510c-32 0-58.4-26-58.4-58.4S356 393.6 388.4 393.6c3.2 0 6.4 0.4 9.2 0.8 5.2 0.8 8.8 5.2 8.4 10.4 0 2.4-0.4 4.8-0.4 7.2v79.6c0 2.4 0 4.8 0.4 7.2 0.4 5.2-3.2 9.6-8.4 10.4-2.8 0.8-6 0.8-9.2 0.8z m-2.4-96.4c-21.2 1.6-37.2 19.6-35.6 40.8 1.2 19.2 16.4 34.4 35.6 35.6v-76.4z" fill="#231F20" p-id="21966"></path><path d="M511.6 617.2c-69.2 0-125.6-56.4-125.6-125.6V398.8c0-8.8 7.2-16 16-16 1.2 0 2.4 0 3.2 0.4 22 4.8 77.6 10 115.6-37.6 5.6-7.2 15.6-8.4 22.8-2.8l1.2 1.2c8 7.6 31.2 25.6 76.4 27.2 8.8 0.4 15.6 7.2 15.6 16V492c0 69.2-56 125.2-125.2 125.2z m-105.6-214v88.4c0 58.4 47.2 105.6 105.6 105.6 58.4 0 105.6-47.2 105.6-105.6V390.8c-44.4-2-70.4-18.4-83.2-30-43.2 50.8-104.4 46.8-128 42.4z m130.4-45.6z m-7.6-6z" fill="#231F20" p-id="21967"></path><path d="M668 427.2c-2.4 0-5.2-1.2-6.8-2.8-7.2-6.8-16.8-10.8-26.4-10.8-2 0-4 0-6 0.4-5.6 0.8-10.4-2.8-11.6-8.4v-15.2c-44.4-2-70.4-18.4-83.2-30-43.2 51.2-104 46.8-128 42.4v0.8c0 5.6-4.4 10-10 10h-1.6c-2-0.4-4-0.4-6-0.4-8.8 0-17.2 2.8-24 8.4-4.4 3.6-10.8 2.8-14-1.6-1.6-1.6-2-4-2-6.4V360.8c0-71.2 58-129.2 129.2-129.2h34c23.6 0 45.6 10.8 60 29.6 9.6-4.4 20-6.4 30.4-6.4 42 0 76 34 76 76v86.8c0 5.2-4.4 9.6-10 9.6z m-30.8-33.6c7.2 0.4 14.4 2 20.8 4.8v-68c0-30.8-24.8-56-55.6-56-10.4 0-20.4 2.8-28.8 8-4.8 2.8-10.8 1.2-13.6-3.6-10-16.8-28.4-27.2-48-27.6h-34c-60.4 0-109.2 48.8-109.2 109.2v36.4c6-2 12-3.2 18.4-3.6 0.8-2.8 2.8-5.6 5.2-7.6 3.6-3.2 8.8-4.4 13.6-3.2 22 4.8 77.6 10 115.6-37.6 5.6-7.2 15.6-8.4 22.8-2.8l1.2 1.2c8 7.6 31.2 25.6 76.4 27.2 8.8 0.4 15.6 7.2 15.6 16v2l-0.4 5.2zM513.2 756c-2.8 0-5.2-1.2-7.2-2.8-0.4-0.4-0.8-0.8-1.2-1.6-0.8-1.2-1.2-2.4-1.6-3.6 0-0.8-0.4-1.2-0.4-2 0-5.6 4.4-10 10-10h2c0.8 0 1.2 0.4 2 0.4 0.4 0.4 1.2 0.4 1.6 0.8 0.4 0.4 1.2 0.8 1.6 1.2 2 2 2.8 4.4 2.8 7.2v2c-0.4 1.2-0.8 2.4-1.6 3.6-0.4 0.4-0.8 1.2-1.2 1.6-0.4 0.4-0.8 0.8-1.6 1.2-0.4 0.4-1.2 0.8-1.6 0.8-0.8 0.4-1.2 0.4-2 0.4-0.4 0.8-1.2 0.8-1.6 0.8zM513.2 807.6c-0.8 0-1.2 0-2-0.4-0.8 0-1.2-0.4-2-0.4-0.4-0.4-1.2-0.4-1.6-0.8-0.4-0.4-1.2-0.8-1.6-1.2-4-4-4-10 0-14 0.4-0.4 0.8-0.8 1.6-1.2 0.4-0.4 1.2-0.8 1.6-0.8 0.8-0.4 1.2-0.4 2-0.4 1.2-0.4 2.8-0.4 4 0 0.8 0 1.2 0.4 2 0.4 0.8 0.4 1.2 0.4 1.6 0.8 0.4 0.4 1.2 0.8 1.6 1.2 4 4 4 10 0 14-0.4 0.4-0.8 0.8-1.6 1.2-0.4 0.4-1.2 0.8-1.6 0.8-0.8 0.4-1.2 0.4-2 0.4-0.8 0.4-1.6 0.4-2 0.4zM513.2 859.2c-0.8 0-1.2 0-2-0.4-0.8 0-1.2-0.4-2-0.4-0.4-0.4-1.2-0.4-1.6-0.8-0.4-0.4-1.2-0.8-1.6-1.2-2-2-2.8-4.4-2.8-7.2s1.2-5.2 2.8-7.2c4-3.6 10-3.6 14 0 2 2 2.8 4.4 2.8 7.2 0.4 5.6-4 10-9.6 10zM513.2 910.8c-0.8 0-1.2 0-2-0.4-0.8 0-1.2-0.4-2-0.4-0.8-0.4-1.2-0.4-1.6-0.8-1.2-0.8-2-1.6-2.8-2.8-0.4-0.4-0.8-1.2-0.8-1.6-0.4-0.8-0.4-1.2-0.8-2-0.4-1.2-0.4-2.8 0-4 0-0.8 0.4-1.2 0.8-2s0.4-1.2 0.8-1.6c0.8-1.2 1.6-2 2.8-2.8 0.4-0.4 1.2-0.8 1.6-0.8 0.8-0.4 1.2-0.4 2-0.4 3.2-0.8 6.8 0.4 8.8 2.8 0.4 0.4 0.8 0.8 1.2 1.6 0.4 0.4 0.8 1.2 0.8 1.6 0.4 0.8 0.4 1.2 0.4 2 0.4 1.2 0.4 2.8 0 4 0 0.8-0.4 1.2-0.4 2-0.4 0.8-0.4 1.2-0.8 1.6-0.8 1.2-1.6 2-2.8 2.8-0.4 0.4-1.2 0.8-1.6 0.8-0.8 0.4-1.2 0.4-2 0.4h-1.6zM513.2 962c-5.6 0-10-4.4-10-10v-2c0-0.8 0.4-1.2 0.8-2s0.4-1.2 0.8-1.6c0.4-0.4 0.8-1.2 1.2-1.6 2.4-2.4 5.6-3.2 8.8-2.8 0.8 0 1.2 0.4 2 0.4 0.4 0.4 1.2 0.4 1.6 0.8 0.4 0.4 1.2 0.8 1.6 1.2 0.4 0.4 0.8 0.8 1.2 1.6 0.4 0.4 0.8 1.2 0.8 1.6 0.4 0.4 0.4 1.2 0.4 2s0 1.2 0.4 2c0 2.8-1.2 5.2-2.8 7.2-0.4 0.4-0.8 0.8-1.6 1.2-0.4 0.4-1.2 0.8-1.6 0.8-0.8 0.4-1.2 0.4-2 0.4-0.4 0.8-1.2 0.8-1.6 0.8zM661.6 1024c-5.6 0-10-4.4-10-10v-193.6c0-5.6 4.4-10 10-10s10 4.4 10 10v193.6c0 5.6-4.8 10-10 10zM364.8 1024c-5.6 0-10-4.4-10-10v-193.6c0-5.6 4.4-10 10-10s10 4.4 10 10v193.6c0 5.6-4.4 10-10 10zM531.6 705.2h-38.8c-8.4 0-15.6-4.8-19.2-12.4l-22.8-50.8c-0.4-1.2-0.8-2.8-0.8-4v-42.8c0-5.6 4.4-10 10-10 1.6 0 3.2 0.4 4.4 1.2 14.4 7.2 30.8 11.2 47.2 11.2 17.6 0 34.8-4.4 50-12.8 4.8-2.8 10.8-0.8 13.6 4 0.8 1.6 1.2 3.2 1.2 4.8v44.4c0 1.6-0.4 3.2-0.8 4.4l-24.8 51.2c-3.6 7.2-11.2 11.6-19.2 11.6z m-61.6-69.6l22 48.8c0 0.4 0.4 0.8 0.8 0.8h38.8c0.4 0 0.8-0.4 0.8-0.4l24-49.2v-26.8a123.6 123.6 0 0 1-44.8 8.4c-14 0-28.4-2.4-41.6-7.2v25.6z" fill="#231F20" p-id="21968"></path><path d="M728.4 1024H297.6c-22.4 0-40.4-18-40.4-40.4v-2.4l14-253.2c1.2-24.4 18.4-44.8 42-50.8l88.8-22.4 53.2-26c4.8-2.4 10.8-0.4 13.2 4.4v0.4l22.8 50.8c0 0.4 0.4 0.8 0.8 0.8h38.8c0.4 0 0.8-0.4 0.8-0.4l24.8-51.2c2.4-4.8 8.4-7.2 13.2-4.8l53.2 26 88.8 22.4c23.6 6 40.8 26.4 42 50.8l14 253.2c1.2 22-15.6 41.2-38 42.4 0.4 0.4-0.4 0.4-1.2 0.4z m-273.6-372.8l-44.8 22c-0.8 0.4-1.2 0.4-2 0.8l-89.6 22.4c-15.2 3.6-26 16.8-26.8 32.4l-14 253.2c-0.8 11.2 8 20.8 19.2 21.2h432c11.2 0 20.4-9.2 20.4-20.4v-1.2l-14-253.2c-0.8-15.6-11.6-28.8-26.8-32.4l-89.6-22.4c-0.8 0-1.2-0.4-2-0.8l-44.8-22-20.4 42c-3.6 7.2-10.8 12-18.8 12h-38.8c-8.4 0-15.6-4.8-19.2-12.4l-20-41.2zM513.2 553.2c-18 0-35.2-9.2-45.2-24-3.2-4.4-2-10.8 2.8-14 4.4-3.2 10.8-2 14 2.8 10.8 16 32.4 20 48 9.2 3.6-2.4 6.8-5.6 9.2-9.2 3.2-4.4 9.2-5.6 14-2.8s5.6 9.2 2.8 14c-10.4 14.8-27.6 24-45.6 24zM469.2 462c-0.8 0-1.2 0-2-0.4-0.8 0-1.2-0.4-2-0.4-0.8-0.4-1.2-0.4-1.6-0.8-0.4-0.4-1.2-0.8-1.6-1.2-4-4-4-10.4 0-14 0.4-0.4 0.8-0.8 1.6-1.2 0.4-0.4 1.2-0.8 1.6-0.8 0.8-0.4 1.2-0.4 2-0.4 5.6-1.2 10.8 2.4 11.6 8s-2.4 10.8-8 11.6c-0.4-0.8-1.2-0.4-1.6-0.4zM557.2 462c-0.8 0-1.2 0-2-0.4-0.8 0-1.2-0.4-2-0.4-0.8-0.4-1.2-0.4-1.6-0.8-0.4-0.4-1.2-0.8-1.6-1.2-4-4-4-10 0-14 0.4-0.4 0.8-0.8 1.6-1.2 0.4-0.4 1.2-0.8 1.6-0.8 0.8-0.4 1.2-0.4 2-0.4 5.6-1.2 10.8 2.4 11.6 8 1.2 5.6-2.4 10.8-8 11.6-0.4-0.8-0.8-0.4-1.6-0.4z" fill="#231F20" p-id="21969"></path><path d="M584.4 746.4c-6 0-11.6-2.8-15.6-7.6l-35.2-43.6c-2.4-3.2-2.8-7.2-1.2-10.8l24.8-51.2c2.4-4.8 8.4-7.2 13.2-4.8l54 26.8c4.8 2.4 6.8 8 4.8 12.8l-26.8 65.6c-2.8 6.4-8.4 11.2-15.6 12.4-0.4 0.4-1.6 0.4-2.4 0.4z m-31.2-58.8l31.2 38.8 23.2-57.2-36.8-18-17.6 36.4zM442 746.4c-0.8 0-2 0-2.8-0.4-7.2-0.8-12.8-5.6-15.6-12.4L396.8 668c-2-4.8 0-10.4 4.8-12.8l54-26.8c4.8-2.4 10.8-0.4 13.2 4.4v0.4l22.8 50.8c2.4 3.6 2.4 8.4-0.4 12l-34 42.4c-3.6 5.2-9.2 8-15.2 8z m-23.6-77.2l23.2 57.2 30-37.6-16.8-37.6-36.4 18zM608.4 859.2h-48.8c-5.6 0-10-4.4-10-10s4.4-10 10-10h48.8c5.6 0 10 4.4 10 10s-4.8 10-10 10z" fill="#231F20" p-id="21970"></path><path d="M857.6 919.2h-102.8c-5.2 0-9.6-4-10-9.6l-10-180.4c-0.8-15.6-11.6-28.8-26.8-32.4l-89.6-22.4c-0.8 0-1.2-0.4-2-0.8l-9.6-4.8c-4.8-2.4-6.8-8.4-4.4-13.2 1.2-2.8 3.6-4.4 6.4-5.2l22-5.6 38.4-18.8c4.8-2.4 10.8-0.4 13.2 4.4 0 0.4 0.4 0.8 0.4 1.2l12.4 35.2h34.4l12.4-35.2c2-5.2 7.6-8 12.8-6 0.4 0 0.8 0.4 1.2 0.4l38.4 18.8 64.4 16.4c18.4 4.4 31.6 20.8 32.8 39.6l9.6 173.2c1.2 24-16.8 44.4-40.8 45.6-1.6-0.4-2.4-0.4-2.8-0.4z m-93.6-20h93.2c12.8 0 23.2-10.4 23.2-23.2v-1.2l-9.6-173.2c-0.4-10.4-7.6-18.8-17.6-21.2l-65.6-16.4c-0.8 0-1.2-0.4-2-0.8l-29.2-14.4-9.6 27.6c-2 6.4-8 10.4-14.8 10.4 13.6 10 21.6 25.2 22.8 42l9.2 170.4zM643.6 660l30.4 7.6-6.8-19.2-23.6 11.6zM271.6 919.2H168.4c-24 0-43.2-19.2-43.2-43.2v-2.4l9.6-173.2c0.8-18.8 14.4-35.2 32.8-39.6l64.4-16.4 38.4-18.8c4.8-2.4 10.8-0.4 13.2 4.4 0 0.4 0.4 0.8 0.4 1.2l12.4 35.2h34.4l12.4-35.2c2-5.2 7.6-8 12.8-6 0.4 0 0.8 0.4 1.2 0.4l38.4 18.8 22 5.6c5.2 1.2 8.8 6.8 7.2 12-0.8 2.8-2.8 5.2-5.2 6.4l-9.6 4.8c-0.8 0.4-1.2 0.4-2 0.8l-89.6 22.4c-15.2 3.6-26 16.8-26.8 32.4l-10 180.4c-0.4 6-4.8 10-10 10z m-2.4-270.8l-29.2 14.4c-0.8 0.4-1.2 0.4-2 0.8L172.4 680c-10 2.4-17.2 11.2-17.6 21.2l-9.6 173.2c-0.8 12.8 9.2 24 22 24.4h94.8l9.6-171.2c0.8-16.8 9.2-32 22.8-42h-0.8c-6.8 0-12.4-4-14.8-10.4l-9.6-26.8z m12.4 80.4z m77.2-80.4l-6.8 19.2 30.4-7.6-23.6-11.6z" fill="#231F20" p-id="21971"></path></svg>