<svg class="icon" viewBox="0 0 1024 1024" xmlns="http://www.w3.org/2000/svg" width="200" height="200"><defs><style/></defs><path d="M920.1 119.9h-803c-25.5 0-44.6 19.1-44.6 44.6v694.7c0 25.5 19.1 44.6 44.6 44.6h803c25.5 0 44.6-19.1 44.6-44.6V164.5c.1-25.4-19.1-44.6-44.6-44.6zM352.9 846.5H129.8v-153h223.1v153zm0-204H129.8v-153h223.1v153zm0-203.9H129.8v-153h223.1v153zM627 846.5H403.9v-153H627v153zm0-204H403.9v-153H627v153zm0-203.9H403.9v-153H627v153zm280.4 407.9H684.3v-153h223.1v153zm0-204H684.3v-153h223.1v153zm0-203.9H684.3v-153h223.1v153z"/></svg>