<svg class="icon" viewBox="0 0 1024 1024" xmlns="http://www.w3.org/2000/svg" width="200" height="200"><defs><style/></defs><path d="M936 838.4H118.4V153.6c0-17.6-14.4-32-32-32s-32 14.4-32 32v716.8c0 8 3.2 16 8 20.8l1.6 1.6 1.6 1.6c6.4 4.8 12.8 8 20.8 8H936c17.6 0 32-14.4 32-32s-14.4-32-32-32z"/><path d="M260.8 795.2c27.2 0 48-20.8 48-48v-168c0-27.2-20.8-48-48-48s-48 20.8-48 48v168c0 27.2 22.4 48 48 48zm196.8 0c27.2 0 48-20.8 48-48V438.4c0-27.2-20.8-48-48-48s-48 20.8-48 48v308.8c0 27.2 20.8 48 48 48zm195.2 0c27.2 0 48-20.8 48-48V580.8c0-27.2-20.8-48-48-48s-48 20.8-48 48v166.4c0 27.2 20.8 48 48 48zm195.2 0c27.2 0 48-20.8 48-48V470.4c0-27.2-20.8-48-48-48s-48 20.8-48 48v278.4c0 25.6 20.8 46.4 48 46.4z"/><path d="M188.8 444.8c-11.2 0-20.8-4.8-27.2-14.4-9.6-14.4-6.4-33.6 9.6-44.8 6.4-4.8 224-139.2 268.8-166.4 11.2-6.4 27.2-6.4 36.8 3.2L656 371.2l219.2-126.4c16-9.6 35.2-3.2 43.2 11.2 9.6 16 3.2 35.2-11.2 43.2l-240 137.6c-11.2 6.4-25.6 4.8-36.8-3.2L454.4 288C352 352 214.4 436.8 208 440c-6.4 3.2-12.8 4.8-19.2 4.8z"/></svg>