<svg class="icon" viewBox="0 0 1024 1024" xmlns="http://www.w3.org/2000/svg" width="200" height="200"><defs><style/></defs><path d="M183.04 512l191.147-228.693a42.667 42.667 0 1 0-65.707-54.614l-213.333 256a42.667 42.667 0 0 0 0 54.187l206.08 256a42.667 42.667 0 0 0 33.28 15.787 42.667 42.667 0 0 0 33.28-69.547zm746.24-26.88l-203.947-256a42.667 42.667 0 0 0-66.56 53.76L840.96 512 649.813 741.12a42.667 42.667 0 0 0 5.547 60.16 42.667 42.667 0 0 0 27.307 9.387 42.667 42.667 0 0 0 32.853-15.36l213.333-256a42.667 42.667 0 0 0 .427-54.187z"/><path d="M670.72 486.827a42.667 42.667 0 0 0-60.16 0l-55.893 52.48V341.333a42.667 42.667 0 0 0-85.334 0v195.84l-55.04-55.466a42.667 42.667 0 0 0-60.586 60.586l128 128A42.667 42.667 0 0 0 512 682.667a42.667 42.667 0 0 0 29.44-11.947l128-123.733a42.667 42.667 0 0 0 1.28-60.16z"/></svg>