<svg class="icon" viewBox="0 0 1024 1024" xmlns="http://www.w3.org/2000/svg" width="200" height="200"><defs><style/></defs><path d="M636.8 3.2v246.4h246.4c3.2 0 6.4-3.2 3.2-6.4L643.2 0s-6.4 0-6.4 3.2z"/><path d="M611.2 323.2c-25.6 0-48-22.4-48-48V0H176c-25.6 0-48 22.4-48 48v928c0 25.6 22.4 48 48 48h672c25.6 0 48-22.4 48-48V323.2H611.2zM393.6 800c19.2 19.2 19.2 48 0 67.2-19.2 19.2-48 19.2-67.2 0L169.6 710.4c-9.6-9.6-12.8-22.4-12.8-35.2 0-12.8 3.2-25.6 12.8-35.2l156.8-156.8c19.2-19.2 48-19.2 67.2 0 19.2 19.2 19.2 48 0 67.2L268.8 675.2 393.6 800zm115.2 70.4c-6.4 25.6-32 41.6-57.6 35.2-25.6-6.4-41.6-32-35.2-57.6l102.4-380.8c6.4-25.6 32-41.6 57.6-35.2 25.6 6.4 41.6 32 35.2 57.6L508.8 870.4zm342.4-160L694.4 867.2c-19.2 19.2-48 19.2-67.2 0-19.2-19.2-19.2-48 0-67.2L752 675.2 627.2 550.4c-19.2-19.2-19.2-48 0-67.2 19.2-19.2 48-19.2 67.2 0L851.2 640c9.6 9.6 12.8 22.4 12.8 35.2 0 12.8-3.2 25.6-12.8 35.2z"/></svg>