<svg class="icon" viewBox="0 0 1024 1024" xmlns="http://www.w3.org/2000/svg" width="200" height="200"><defs><style/></defs><path d="M192 96v832h376.992c47.008 58.496 118.4 96 199.008 96 140.992 0 256-115.008 256-256 0-118.752-82.016-218.304-192-247.008V307.008l-8.992-10.016-192-192L620.992 96H192zm64 64h320v192h192v160c-140.992 0-256 115.008-256 256 0 34.112 6.816 66.208 19.008 96H256V160zm384 46.016L722.016 288H640v-82.016zM768 576c106.432 0 192 85.568 192 192s-85.568 192-192 192-192-85.568-192-192 85.568-192 192-192zm-72.992 72.992L648.96 695.04 722.016 768l-73.024 72.992 46.016 46.016L768 813.984l72.992 73.024 46.016-46.016L813.984 768l73.024-72.992-46.016-46.016L768 722.016l-72.992-73.024z"/></svg>