<svg class="icon" viewBox="0 0 1077 1024" xmlns="http://www.w3.org/2000/svg" width="210.352" height="200"><defs><style/></defs><path d="M1077.6 205.21H.246V90.448A90.873 90.873 0 0 1 90.649.044h893.269a90.873 90.873 0 0 1 93.683 90.404z"/><path d="M983.918 1024H90.649A98.836 98.836 0 0 1 .245 918.606V190.69H75.66v727.917c0 18.737 9.837 29.98 14.99 29.98h893.268c5.152 0 14.989-11.243 14.989-29.98V190.69h78.694v727.917A98.836 98.836 0 0 1 983.918 1024z"/><path d="M864.472 406.16H468.66a37.942 37.942 0 0 1 0-75.415h397.216a37.942 37.942 0 0 1 0 75.415zm-668.898-37.942a60.894 60.894 0 1 0 121.788 0 60.894 60.894 0 1 0-121.788 0zM864.472 799.16H468.66a37.942 37.942 0 0 1 0-75.414h397.216a37.942 37.942 0 0 1 0 75.415zm-668.898-37.473a60.894 60.894 0 1 0 121.788 0 60.894 60.894 0 1 0-121.788 0zm668.898-159.261H468.66a37.473 37.473 0 0 1-37.474-37.473 37.942 37.942 0 0 1 37.474-37.942h397.216a37.942 37.942 0 0 1 37.473 37.942 37.473 37.473 0 0 1-38.878 37.473zm-668.898-37.473a60.894 60.894 0 1 0 121.788 0 60.894 60.894 0 1 0-121.788 0z"/></svg>