<svg class="icon" viewBox="0 0 1024 1024" xmlns="http://www.w3.org/2000/svg" width="200" height="200"><defs><style/></defs><path d="M811.386 688.046V515.64c0-19.158-15.508-34.664-34.664-34.664s-34.664 15.506-34.664 34.664v137.742h-460.3V515.64c0-19.158-15.508-34.664-34.664-34.664s-34.664 15.506-34.664 34.664v172.406c0 19.156 15.508 34.664 34.664 34.664H776.54c19.338-.18 34.298-15.688 34.846-34.664zM408.192 354.544c-19.158 0-34.664 14.958-34.664 34.664 0 8.756 3.1 16.6 8.756 22.622l103.808 115.12c6.204 6.752 16.056 11.312 25.724 11.312 10.4 0 19.52-4.56 25.724-11.312l103.81-115.12c5.108-5.656 8.758-13.866 8.758-22.622 0-19.158-15.508-34.664-34.664-34.664-10.4 0-19.522 4.56-25.726 11.31l-43.054 48.164V204.394c0-19.156-15.508-34.664-34.664-34.664s-34.664 15.508-34.664 34.664v209.444l-43.42-47.982c-6.022-6.568-15.326-11.312-25.724-11.312zM178.314 44.942h667.188c73.888 0 133.548 59.658 133.548 133.364v667.188c0 73.708-59.66 133.366-133.366 133.366h-667.37c-73.706.182-133.364-59.476-133.364-133.182V178.306c0-73.706 59.658-133.364 133.364-133.364z"/></svg>