<svg class="icon" viewBox="0 0 1024 1024" xmlns="http://www.w3.org/2000/svg" width="200" height="200"><defs><style/></defs><path d="M190.897 95.164v824.758h329.11l-10.912 57.51-9.897 46.568 46.599-9.897 111.025-21.824 9.897-1.967 6.947-6.947 313.25-314.233a94.086 94.086 0 0 0 0-132.85 93.578 93.578 0 0 0-66.425-27.755 93.578 93.578 0 0 0-66.425 27.756l-28.74 28.771V304.336l-8.913-9.93-190.33-190.328-9.928-8.914H190.897zm63.443 63.443h317.215v190.329h190.328v279.561l-222.05 221.035-6.947 6.947H254.34V158.607zm380.658 45.616l81.302 81.27h-81.302v-81.302zM920.49 569.97c7.454 0 14.718 3.838 21.824 10.944 14.148 14.148 14.148 29.437 0 43.617L634.998 931.786l-54.53 10.912 10.913-54.53 305.318-306.302 1.999-1.015c7.074-7.073 14.338-10.88 21.793-10.88z"/></svg>