<svg class="icon" viewBox="0 0 1024 1024" xmlns="http://www.w3.org/2000/svg" width="200" height="200"><defs><style/></defs><path d="M416 96c-123.36 0-224 100.64-224 224 0 77.12 39.36 145.6 99.008 186.016C176.864 554.976 96 668.256 96 800h64c0-141.76 114.24-256 256-256 68.64 0 130.016 28.128 176 72L440.992 767.008l-1.984 9.984-22.016 113.024-9.984 46.976 47.008-9.984 112.96-22.016 10.016-1.984L900 580c37.12-37.12 37.12-98.88 0-136a96.576 96.576 0 0 0-135.008-.992L638.016 570.016a323.296 323.296 0 0 0-97.024-64A224.768 224.768 0 0 0 640 320c0-123.36-100.64-224-224-224zm0 64c88.736 0 160 71.264 160 160s-71.264 160-160 160-160-71.264-160-160 71.264-160 160-160zm416 320c8.128 0 16.64 2.624 23.008 8.992a31.264 31.264 0 0 1 0 44.992L544.992 844 488 856l12-56.992 310.016-310.016C816.384 482.624 823.872 480 832 480z"/></svg>