<svg class="icon" viewBox="0 0 1026 1024" xmlns="http://www.w3.org/2000/svg" width="200.391" height="200"><defs><style/></defs><path d="M307.934 709.191l55.608-121.907 70.216 67.79-125.824 54.117zm95.818-171.645l366.41-352.874 82.001 80.116-365.732 352.096-82.679-79.338zm550.043-370.902l-50.505 48.372-81.855-80.116 49.704-47.593c8.004-7.959 23.436-6.514 32.15 2.145l48.283 46.182c5.147 5.035 8.071 11.56 8.071 18.04.011 5.045-2.201 9.369-5.848 12.97zM313.793 530.3c-.745.768-1.468 1.479-2.213 2.89l-51.94 184.029c-2.923 10.78 0 22.34 8.072 30.31 6.581 5.78 14.608 9.29 23.39 9.29 2.935 0 5.114-.7 8.038-1.4l190.147-49.749h.79a8.049 8.049 0 0 0 5.791-2.178l507.722-489.208c15.285-14.405 23.356-33.89 23.356-55.552 0-24.52-10.927-49.038-29.215-67.078L949.45 45.471c-19.01-18.04-43.935-28.854-69.572-28.854-22.578 0-43.146 7.936-57.708 23.074L314.504 528.11c-.711.7-.711 1.479-.711 2.19zM100.933 0C45.357 0 0 44.703 0 99.555V923.53c0 54.807 45.358 99.556 100.932 99.556h806.083c55.574 0 100.865-44.749 100.865-99.556V397.544h-86.291v451.73c0 49.049-40.222 87.938-89.215 87.938H175.54c-49.005 0-89.215-38.89-89.215-87.939V173.158c0-48.339 40.21-88.041 89.215-88.041h457.904V0H100.932z"/></svg>