<svg class="icon" viewBox="0 0 1024 1024" xmlns="http://www.w3.org/2000/svg" width="200" height="200"><defs><style/></defs><path d="M791.016 114.123c-25.817-27.295-67.841-27.295-93.653 0l-53.094 56.424 124.828 132.315 53.098-56.405c26.1-27.31 26.1-71.701 0-99.015l-31.179-33.319zm-171.95 82.822L271.61 566.019v7.79h30.002v30.007h30.007v30.007h30.007v30.003h30.003v42.894l352.564-377.455-125.126-132.32zM241.602 598.119l-12.906 13.497-47.104 180.646 183.926-57.311 10.2-11.111h-14.093v-30.003h-30.007V663.83h-30.007v-30.002H271.61v-30.007h-30.007v-5.702zM205.59 877.177v56.698h625.008v-56.698H205.591z"/></svg>