<svg class="icon" viewBox="0 0 1024 1024" xmlns="http://www.w3.org/2000/svg" width="200" height="200"><defs><style/></defs><path d="M101.6 443.4c0 50.6 32.4 120 83 137v2c-37.6 16.6-48 101.2 2 131.6v2C132 734 96 768.6 96 828.4c0 103 97.6 131.6 183 131.6 104 0 181.4-37.4 181.4-152 0-141-202-89-202-165.6 0-27 14.4-37.4 39.4-42.6 83-15.4 135-80 135-164.4 0-14.6-3-28.4-8-42 13.4-3 26.4-6.6 39.4-11v-101c-34.4 13.6-71.4 23.6-109 23.6-107.6-62-253.6 2.6-253.6 138.4zM277 771c34 0 82.4 6 82.4 50 0 43.6-39 52.6-75.4 52.6-34.6 0-86.6-5.4-86.6-50.4.2-44.6 44.2-52.2 79.6-52.2zm-6.4-259c-44 0-62.6-26-62.6-67.6 0-98.6 122-97.6 122-1 0 40.6-16 68.6-59.4 68.6zM928 611v98c-26.6 14.6-61 19.6-91 19.6-107 0-119.6-84.4-119.6-171.4V381.8h1v-2c-14 0-14.6-3.2-48 2v-95h48c0-44.6.6-62-3-82.4h113.4c-4 27.6-3 55-3 82.4h102v95s-38.6-2-102-2V562c0 29.6 6.6 65.6 43.6 65.6 19.6 0 42.6-5.6 58.6-16.6zM636 137.4c0 37.4-29 72.4-67.6 72.4-39.6 0-69-34.4-69-72.4 0-38.6 29-73.4 69-73.4 39.6 0 67.6 36 67.6 73.4zm-12.4 149c-3.6 29.2-3.2 399.6 0 435.6h-111c3.2-36.2 3.6-406 0-435.6h111z"/></svg>