<svg class="icon" viewBox="0 0 1024 1024" xmlns="http://www.w3.org/2000/svg" width="200" height="200"><defs><style/></defs><path d="M512 0a512 512 0 1 0 512 512A512 512 0 0 0 512 0zm0 896a384 384 0 1 1 384-384 384 384 0 0 1-384 384z"/><path d="M540.16 756.48a33.28 33.28 0 0 1-11.52-33.28 162.56 162.56 0 0 1 6.4-28.8c3.84-12.8 7.68-24.32 11.52-33.92l51.2-122.88a167.04 167.04 0 0 0 10.88-37.12c0-14.08 3.84-23.04 4.48-28.8a69.76 69.76 0 0 0-29.44-64A152.32 152.32 0 0 0 490.24 384a281.6 281.6 0 0 0-72.96 10.24 348.8 348.8 0 0 0-64 23.04l-14.08 38.4a437.12 437.12 0 0 1 44.8-12.16 64 64 0 0 1 44.8 9.6 37.12 37.12 0 0 1 10.24 32.64 139.52 139.52 0 0 1-5.76 29.44c-3.84 10.88-7.68 22.4-12.16 33.28L369.92 672c-4.48 13.44-8.32 24.96-10.88 35.2a263.04 263.04 0 0 0-4.48 30.08 67.84 67.84 0 0 0 30.08 64 154.88 154.88 0 0 0 94.72 24.96 243.84 243.84 0 0 0 71.68-8.96 442.24 442.24 0 0 0 69.76-22.4l14.08-37.76c-3.84.64-71.68 14.72-94.72-.64zM576 197.12a79.36 79.36 0 0 0-56.32 22.4 76.8 76.8 0 0 0 0 110.72 80.64 80.64 0 0 0 56.32 22.4 78.08 78.08 0 0 0 56.32-22.4 76.8 76.8 0 0 0 0-110.72 78.08 78.08 0 0 0-56.32-22.4z"/></svg>