<svg class="icon" viewBox="0 0 1024 1024" xmlns="http://www.w3.org/2000/svg" width="200" height="200"><defs><style/></defs><path d="M512 64C264.576 64 64 264.577 64 512s200.576 448 448 448 448-200.576 448-448S759.424 64 512 64zm0 832c-212.078 0-384-171.923-384-384s171.922-384 384-384c212.077 0 384 171.923 384 384S724.077 896 512 896z"/><path d="M352 256c-17.673 0-32 14.327-32 32v448c0 17.674 14.327 32 32 32s32-14.326 32-32V288c0-17.673-14.327-32-32-32zm256 0H480c-17.673 0-32 14.326-32 32v448c0 17.674 14.327 32 32 32s32-14.326 32-32V576h96c88.366 0 160-71.635 160-160 0-88.366-71.634-160-160-160zm0 256h-96V320h96c53.02 0 96 42.98 96 96s-42.98 96-96 96z"/></svg>