<svg class="icon" viewBox="0 0 1024 1024" xmlns="http://www.w3.org/2000/svg" width="200" height="200"><defs><style/></defs><path d="M354.401 0c-87.04 0-157.44 70.559-157.44 157.599V433.28H78.72c-21.658 0-39.363 17.7-39.363 39.363V708.96c0 21.658 17.7 39.358 39.363 39.358h118.241V866.4c0 87.04 70.4 157.599 157.44 157.599H827.04c87.04 0 157.598-70.559 157.598-157.599V315.034c0-41.749-38.988-81.93-107.52-149.28L848 136.633l-29.123-29.112C751.54 38.989 711.393 0 669.6 0H354.406zm0 78.72h287.202c28.354 7.091 27.996 42.138 27.996 76.8v120.161c0 21.658 17.7 39.358 39.362 39.358H827.04c39.388 0 78.878-.026 78.878 39.362v512c0 43.32-35.553 78.879-78.878 78.879H354.406c-43.325 0-78.72-35.558-78.72-78.879V748.32h393.918c21.663 0 39.362-17.695 39.362-39.358V472.643c0-21.663-17.7-39.363-39.362-39.363H275.68V157.599c0-43.32 35.395-78.879 78.72-78.879zm-92.8 407.199h20.158l65.28 176.64h-23.04l-19.2-54.718h-65.28l-19.2 54.718h-23.04l64.322-176.64zm273.598 0h20.162l65.28 176.64h-23.04l-19.2-54.718h-65.28l-19.2 54.718h-23.04l64.318-176.64zm-382.08.962H175.2v172.8c0 16-4.162 28.16-12.482 36.48-8.32 8.96-20.158 13.44-35.518 13.44-7.04 0-13.122-.962-18.242-2.882v-19.2a97.68 97.68 0 0 0 19.2 1.92c8.32 0 14.402-2.238 18.242-6.718 4.48-4.48 6.718-11.202 6.718-20.162V486.88zm186.24 0h24.002l35.518 111.36c3.2 10.88 6.722 24.32 10.562 40.32 1.92-11.52 5.438-25.282 10.558-41.282L455.52 486.88h23.04l-58.566 175.68h-22.068l-58.572-175.68zm-67.2 23.04c-1.92 8.96-4.798 18.238-8.638 27.838l-17.28 50.882h51.84L279.84 537.76c-3.84-10.88-6.4-20.158-7.68-27.838zm273.602 0c-1.92 8.96-4.802 18.238-8.642 27.838l-17.28 50.882h51.84L553.44 537.76c-3.84-10.88-6.4-20.158-7.68-27.838z"/></svg>