<svg class="icon" viewBox="0 0 1024 1024" xmlns="http://www.w3.org/2000/svg" width="200" height="200"><defs><style/></defs><path d="M594.351 307.451c0-51.614 40.642-93.07 90.214-93.07 50.007 0 90.251 41.456 90.251 93.07 0 51.219-40.244 93.072-90.251 93.072-49.572 0-90.214-41.852-90.214-93.072zm-466.545 469.82c-28.06 28.855-28.06 75.588 0 104.442 28.02 28.854 73.544 28.854 101.167 0l20.321-20.719 84.142 87.378c14.645 14.625 37.783 14.625 52.033 0L511.44 818.31c14.208-14.626 14.208-38.599 0-53.224l-84.538-87.395 150.382-154.847c32.109 17.087 68.702 26.83 107.28 26.83 129.663 0 234.92-108.51 234.92-242.223 0-133.712-105.257-242.221-234.92-242.221-129.626 0-234.484 108.51-234.484 242.221a253.26 253.26 0 0 0 25.6 110.951L127.806 777.271z"/></svg>