<svg class="icon" viewBox="0 0 1024 1024" xmlns="http://www.w3.org/2000/svg" width="200" height="200"><defs><style/></defs><path d="M937.6 240L534.4 6.4c-12.8-9.6-32-9.6-44.8 0L86.4 240c-16 6.4-22.4 22.4-22.4 38.4v467.2c0 16 9.6 32 22.4 38.4l403.2 233.6c6.4 3.2 16 6.4 22.4 6.4 6.4 0 16-3.2 22.4-6.4L937.6 784c12.8-9.6 22.4-22.4 22.4-38.4V278.4c0-16-6.4-32-22.4-38.4zm-67.2 480L512 928 153.6 720V304L512 96l358.4 208v416z"/><path d="M227.2 345.6c-12.8 22.4-6.4 48 16 60.8l220.8 128v278.4c0 25.6 19.2 44.8 44.8 44.8s44.8-19.2 44.8-44.8V537.6L771.2 416c22.4-12.8 28.8-38.4 16-60.8s-38.4-28.8-60.8-16L512 454.4l-220.8-128c-22.4-9.6-51.2-3.2-64 19.2z"/></svg>