<svg class="icon" viewBox="0 0 1024 1024" xmlns="http://www.w3.org/2000/svg" width="200" height="200"><defs><style/></defs><path d="M354.401 0c-87.04 0-157.44 70.559-157.44 157.599V433.28H78.72c-21.658 0-39.363 17.7-39.363 39.363V708.96c0 21.658 17.7 39.358 39.363 39.358h118.241V866.4c0 87.04 70.4 157.599 157.44 157.599H827.04c87.04 0 157.598-70.559 157.598-157.599V315.034c0-41.749-38.988-81.93-107.52-149.28L848 136.633l-29.123-29.112C751.54 38.989 711.393 0 669.6 0H354.406zm0 78.72h287.202c28.354 7.091 27.996 42.138 27.996 76.8v120.161c0 21.658 17.7 39.358 39.362 39.358H827.04c39.388 0 78.878-.026 78.878 39.362v512c0 43.32-35.553 78.879-78.878 78.879H354.406c-43.325 0-78.72-35.558-78.72-78.879V748.32h393.918c21.663 0 39.362-17.695 39.362-39.358V472.643c0-21.663-17.7-39.363-39.362-39.363H275.68V157.599c0-43.32 35.395-78.879 78.72-78.879zM195.994 507.361h32.64l49.92 143.038h.962l48.958-143.038h33.602V683.04h-22.082V576.48c0-10.88.322-26.562.962-47.042h-.962l-52.798 153.6h-19.2l-52.802-153.6h-.958c1.28 22.4 1.92 38.722 1.92 48.962v104.64h-20.162V507.36zm214.082 0h48.958c24.96 0 44.482 7.68 58.562 23.04 14.72 14.72 22.078 35.84 22.078 63.36 0 28.8-7.68 50.878-23.04 66.238-14.72 15.36-35.518 23.04-62.398 23.04h-44.16V507.36zm22.078 19.2V663.84h19.2c21.76 0 37.76-5.76 48-17.28 10.88-11.52 16.322-28.8 16.322-51.84s-5.12-39.998-15.36-50.878c-9.6-11.52-24.32-17.28-44.16-17.28h-24.002z"/></svg>