<svg class="icon" viewBox="0 0 1026 1024" xmlns="http://www.w3.org/2000/svg" width="200.391" height="200"><defs><style/></defs><path d="M463.246 567.58V101.604h-.682C207.304 101.604.455 308.11.455 562.802.455 817.493 207.303 1024 462.222 1024c128.342 0 244.338-52.338 328.022-136.76L463.246 567.58zM863.29 857.372L515.64 507.506 866.475 159.63l19.968 19.57c89.03 87.324 138.069 203.833 138.069 328.021 0 125.839-50.062 243.371-141.028 330.81l-20.195 19.341zM596.025 507.79l267.491 269.198C930.93 702.862 967.68 608.142 967.68 507.221c0-99.441-35.897-193.251-101.66-267.093L596.025 507.79zM541.412 0v427.52L844.06 125.156C766.578 47.786 659.57 0 541.412 0z"/></svg>