<svg class="icon" viewBox="0 0 1024 1024" xmlns="http://www.w3.org/2000/svg" width="200" height="200"><defs><style/></defs><path d="M301.5 255.5h320q47 0 47 47t-47 47h-320q-47 0-47-47t47-47zm0 175h49q47 0 47 47t-47 47h-49q-47 0-47-47t47-47zm614.23 431.77l-37.58-37.59A263.76 263.76 0 0 0 925.5 673.5c0-146.36-118.64-265-265-265s-265 118.64-265 265 118.64 265 265 265a263.76 263.76 0 0 0 151.18-47.35l37.59 37.58a47 47 0 0 0 66.46 0 47 47 0 0 0 0-66.46zM660.5 844.5a171 171 0 1 1 120.92-50.08A169.92 169.92 0 0 1 660.5 844.5z"/><path d="M333.5 848.5h-129a16 16 0 0 1-16-16v-641a16 16 0 0 1 16-16h514a16 16 0 0 1 16 16v116a47 47 0 0 0 47 47 47 47 0 0 0 47-47v-190a36 36 0 0 0-36-36h-662a36 36 0 0 0-36 36v789a36 36 0 0 0 36 36h203a47 47 0 0 0 47-47 47 47 0 0 0-47-47z"/></svg>