<svg class="icon" viewBox="0 0 1024 1024" xmlns="http://www.w3.org/2000/svg" width="200" height="200"><defs><style/></defs><path d="M540.444 625.778v-45.511c0-22.756 17.067-39.823 39.823-39.823 5.689 0 11.377 0 17.066 5.69l130.845 62.577c17.066 11.378 28.444 34.133 17.066 51.2-5.688 5.689-11.377 17.067-17.066 17.067l-130.845 62.578c-17.066 11.377-45.51 0-51.2-17.067 0-5.689-5.689-11.378-5.689-17.067v-22.755H369.778c-17.067 0-28.445-11.378-28.445-28.445V369.778c0-17.067 11.378-28.445 28.445-28.445h170.666c17.067 0 28.445 11.378 28.445 28.445s-11.378 28.444-28.445 28.444H398.222v227.556h142.222zM654.222 0L876.09 244.622h5.689V256l28.444 28.444v625.778c0 62.578-51.2 113.778-113.778 113.778H227.556c-62.578 0-113.778-51.2-113.778-113.778V113.778C113.778 51.2 164.978 0 227.556 0h426.666zm0 85.333v91.023c0 34.133 28.445 62.577 62.578 62.577h79.644l-142.222-153.6zm193.422 216.178H716.8c-68.267 0-119.467-56.889-119.467-119.467V56.89H227.556c-34.134 0-56.89 22.755-56.89 56.889v796.444c0 34.134 22.756 56.89 56.89 56.89h568.888c34.134 0 56.89-22.756 56.89-56.89V307.2l-5.69-5.689z"/></svg>