<svg class="icon" viewBox="0 0 1024 1024" xmlns="http://www.w3.org/2000/svg" width="200" height="200"><defs><style/></defs><path d="M896 640a128 128 0 0 0 0-256h-22.187a381.065 381.065 0 0 0-15.428-37.41l15.633-15.633a128 128 0 0 0-180.975-180.975l-15.633 15.633A374.306 374.306 0 0 0 640 150.187V128a128 128 0 0 0-256 0v22.187a374.306 374.306 0 0 0-37.41 15.428l-15.633-15.633a128 128 0 0 0-180.975 180.975l15.633 15.633A391.168 391.168 0 0 0 150.187 384H128a128 128 0 0 0 0 256h22.187a391.168 391.168 0 0 0 15.428 37.41l-15.633 15.633a128 128 0 0 0 180.975 180.975l15.633-15.633A374.306 374.306 0 0 0 384 873.813V896a128 128 0 0 0 256 0v-22.187a374.306 374.306 0 0 0 37.41-15.428l15.633 15.633a128 128 0 0 0 180.975-180.975l-15.633-15.701A373.146 373.146 0 0 0 873.813 640H896zm-67.243 98.304a64.17 64.17 0 0 1 0 90.453 65.74 65.74 0 0 1-90.453 0l-49.289-49.288-21.162 11.81a319.147 319.147 0 0 1-68.267 28.33l-23.279 6.827v69.769a64.034 64.034 0 0 1-128.068 0v-70.178L424.96 819.2a316.28 316.28 0 0 1-68.267-28.33l-21.162-11.81-49.289 49.288a65.74 65.74 0 0 1-90.453 0 64.17 64.17 0 0 1 0-90.454l49.22-49.288-11.81-21.163a318.669 318.669 0 0 1-28.262-68.266l-6.827-23.211H128.34a64.034 64.034 0 0 1 0-128.068h69.632l6.827-23.28a319.556 319.556 0 0 1 28.262-68.266l11.81-21.163-49.22-49.288a64.17 64.17 0 0 1 0-90.454 65.74 65.74 0 0 1 90.454 0l49.288 49.22 21.163-11.81a316.143 316.143 0 0 1 68.266-28.262l23.28-6.826V128a64.034 64.034 0 0 1 128.068 0v69.973l23.279 6.827a318.942 318.942 0 0 1 68.266 28.262l21.163 11.81 49.288-49.22a65.74 65.74 0 0 1 90.454 0 64.17 64.17 0 0 1 0 90.454l-49.22 49.288 11.741 21.163a317.167 317.167 0 0 1 28.331 68.266l6.827 23.28h69.768a64.034 64.034 0 0 1 0 128.068h-70.041l-6.827 23.21a317.713 317.713 0 0 1-28.33 68.267l-11.743 21.163zM512 319.966A192.034 192.034 0 1 0 704.034 512 192.17 192.17 0 0 0 512 319.966zM512 640a128 128 0 1 1 128-128 128.137 128.137 0 0 1-128 128z"/></svg>