<svg class="icon" viewBox="0 0 1024 1024" xmlns="http://www.w3.org/2000/svg" width="200" height="200"><defs><style/></defs><path d="M768 640c-46.933 0-89.6 21.333-119.467 51.2L422.4 558.933c0-17.066 4.267-29.866 4.267-46.933s-4.267-29.867-8.534-46.933L644.267 332.8C678.4 362.667 721.067 384 768 384c93.867 0 170.667-76.8 170.667-170.667S861.867 42.667 768 42.667s-170.667 76.8-170.667 170.666c0 17.067 4.267 29.867 8.534 46.934l-230.4 132.266c-29.867-29.866-72.534-51.2-119.467-51.2-93.867 0-170.667 76.8-170.667 170.667S162.133 682.667 256 682.667c46.933 0 89.6-21.334 119.467-51.2L601.6 763.733c0 17.067-4.267 29.867-4.267 46.934 0 93.866 76.8 170.666 170.667 170.666s170.667-76.8 170.667-170.666S861.867 640 768 640zm0-512c46.933 0 85.333 38.4 85.333 85.333s-38.4 85.334-85.333 85.334-85.333-38.4-85.333-85.334S721.067 128 768 128zM256 597.333c-46.933 0-85.333-38.4-85.333-85.333s38.4-85.333 85.333-85.333 85.333 38.4 85.333 85.333-38.4 85.333-85.333 85.333zM768 896c-46.933 0-85.333-38.4-85.333-85.333 0-17.067 4.266-29.867 12.8-42.667 12.8-25.6 42.666-42.667 72.533-42.667 46.933 0 85.333 38.4 85.333 85.334S814.933 896 768 896z"/></svg>