<svg class="icon" viewBox="0 0 1091 1024" xmlns="http://www.w3.org/2000/svg" width="213.086" height="200"><defs><style/></defs><path d="M950.4 0H137.6C60.8 0 0 60.8 0 134.4v752C0 963.2 60.8 1024 137.6 1024h816c73.6 0 137.6-60.8 137.6-134.4V134.4C1088 60.8 1027.2 0 950.4 0zm51.2 883.2c0 28.8-25.6 54.4-54.4 54.4H144c-28.8 0-54.4-25.6-54.4-54.4V140.8c0-28.8 25.6-54.4 54.4-54.4h803.2c28.8 0 54.4 25.6 54.4 54.4v742.4zm0 0"/><path d="M217.6 435.2V624h48V435.2h67.2v-38.4H150.4v38.4h67.2zm153.6-38.4V624h48V396.8h-48zm316.8 32v192h44.8V393.6H656L608 560l-48-166.4h-80v227.2h44.8v-192L585.6 624h41.6L688 428.8zm243.2 192v-38.4H825.6v-60.8h96v-38.4h-96V432H928v-38.4H777.6v227.2h153.6z"/></svg>