<svg class="icon" viewBox="0 0 1024 1024" xmlns="http://www.w3.org/2000/svg" width="200" height="200"><defs><style/></defs><path d="M832.601 397.8h-19.903v-96.053c0-.602-.097-1.203-.17-1.813a15.97 15.97 0 0 0-3.86-10.524L648.841 106.845c-.049-.048-.097-.065-.13-.113a16.075 16.075 0 0 0-4.299-3.349 16.88 16.88 0 0 0-3.21-1.349c-.3-.081-.57-.203-.87-.284a16.278 16.278 0 0 0-3.73-.463H243.81c-17.937 0-32.508 14.588-32.508 32.508V397.79h-19.903a46.462 46.462 0 0 0-46.462 46.462V685.87a46.47 46.47 0 0 0 46.462 46.462h19.903v165.4c0 17.92 14.571 32.508 32.508 32.508h536.38c17.92 0 32.508-14.588 32.508-32.508V732.339h19.903a46.47 46.47 0 0 0 46.462-46.462V444.262a46.454 46.454 0 0 0-46.462-46.462zM243.81 133.795h376.539v166.318a16.254 16.254 0 0 0 16.254 16.254H780.19V397.8H243.81V133.795zm160.345 307.728h63.017l21.26 44.3a760.328 760.328 0 0 1 18.367 40.326h.723c5.746-15.482 10.435-26.29 16.555-40.326l20.537-44.3h62.667l-68.43 118.475 72.03 124.253h-63.39l-21.96-43.934c-9.004-16.929-14.774-29.525-21.617-43.577h-.724c-5.038 14.052-11.158 26.648-18.716 43.577l-20.163 43.934h-62.675l70.233-122.798-67.714-119.93zm-206.726 46.096v-46.096h186.538v46.096h-66.259v196.624h-55.085V487.62H197.43zM780.19 888.921H243.81V732.34h536.38v156.58zm30.59-401.302h-66.267v196.624h-55.1V487.62h-65.187v-46.096H810.78v46.096z"/></svg>