<svg class="icon" viewBox="0 0 1024 1024" xmlns="http://www.w3.org/2000/svg" width="200" height="200"><defs><style/></defs><path d="M87.68 338.764V199.17a98.53 98.53 0 0 1 98.356-98.356h637.222a98.487 98.487 0 0 1 98.444 98.4v139.549H87.68zm834.065 485.978a98.487 98.487 0 0 1-98.443 98.4h-72.437l1.528-86.706h.48c37.832-.261 66.458-23.781 69.512-57.163 1.79-19.375-4.93-37.397-20.029-53.586l-2.05-2.094-148.931-139.768a75.71 75.71 0 0 0-54.328-22.56 76.364 76.364 0 0 0-54.327 22.124L390.56 724.945a63.796 63.796 0 0 0-16.015 62.182 67.724 67.724 0 0 0 65.411 49.353h.35l-1.615 86.705H186.036a98.53 98.53 0 0 1-98.443-98.4V382.4h834.152v442.473zm-98.443-767.52H186.036A142.036 142.036 0 0 0 44.044 199.17v625.57a142.036 142.036 0 0 0 141.992 142.037H481.63l3.142-173.978H440l-.218.044a23.782 23.782 0 0 1-23.127-17.368 20.204 20.204 0 0 1 5.105-20.029l150.59-140.072a34.69 34.69 0 0 1 24.74-10.473c8.685 0 17.28 3.36 23.695 10.123l149.63 140.422c6.938 7.418 9.163 13.222 8.509 19.768-1.048 11.17-11.346 17.498-26.357 17.585h-42.982l-3.141 173.978h116.858a142.036 142.036 0 0 0 142.08-142.036V199.215a142.036 142.036 0 0 0-142.08-142.037z"/></svg>