<svg class="icon" viewBox="0 0 1024 1024" xmlns="http://www.w3.org/2000/svg" width="200" height="200"><defs><style/></defs><path d="M831.746 393.074h-19.954v-96.298c0-.604-.099-1.207-.172-1.817a16.022 16.022 0 0 0-3.87-10.553L647.503 101.352c-.05-.049-.098-.065-.131-.114a16.12 16.12 0 0 0-4.31-3.358 16.931 16.931 0 0 0-3.22-1.352c-.3-.082-.571-.204-.871-.286a16.335 16.335 0 0 0-3.74-.464H241.402c-17.983 0-32.594 14.627-32.594 32.594v264.693h-19.954a46.584 46.584 0 0 0-46.584 46.584v242.254c.003 25.726 20.857 46.58 46.584 46.583h19.954v165.837c0 17.968 14.612 32.594 32.594 32.594h537.796c17.967 0 32.594-14.626 32.594-32.594V728.495h19.954c25.726-.005 46.58-20.858 46.585-46.584V439.658c0-25.727-20.856-46.584-46.585-46.584zM241.402 128.38h377.533v166.757c0 4.322 1.717 8.469 4.773 11.523a16.291 16.291 0 0 0 11.524 4.774h143.966v81.647H241.402V128.38zm410.933 532.556h-48.37l-3.259-83.782c-.97-26.302-1.955-58.116-1.955-89.95h-.955a1182.952 1182.952 0 0 1-24.346 84.75l-26.63 85.404h-38.654l-23.379-84.745c-7.13-25.642-14.594-56.818-19.8-85.403h-.653c-1.286 29.554-2.273 63.32-3.903 90.594l-3.887 83.13H410.76l13.973-218.858h65.905l21.439 73.067c6.81 25.31 13.639 52.581 18.495 78.232h.986c6.161-25.31 13.64-54.211 20.787-78.566l23.378-72.733h64.617l11.995 218.86zm-451.994 0L263.656 550.2l-61.032-108.12h56.818l19.15 39.934a696.56 696.56 0 0 1 16.582 36.359h.635c5.19-13.95 9.403-23.688 14.928-36.359l18.521-39.934h56.485l-61.7 106.833 64.952 112.025h-57.137l-19.818-39.625c-8.114-15.254-13.306-26.622-19.482-39.293h-.651c-4.54 12.68-10.072 24.04-16.886 39.293l-18.171 39.625h-56.51zM779.198 885.5H241.402V728.495h537.796V885.5zm47.872-224.562H690.346v-218.86h49.69V619.38h87.042v41.557h-.008z"/></svg>