<svg class="icon" viewBox="0 0 1024 1024" xmlns="http://www.w3.org/2000/svg" width="200" height="200"><defs><style/></defs><path d="M354.401 0c-87.04 0-157.44 70.559-157.44 157.599V433.28H78.72c-21.658 0-39.363 17.7-39.363 39.363V708.96c0 21.658 17.7 39.358 39.363 39.358h118.241V866.4c0 87.04 70.4 157.599 157.44 157.599H827.04c87.04 0 157.598-70.559 157.598-157.599V315.034c0-41.749-38.988-81.93-107.52-149.28L848 136.633l-29.123-29.112C751.54 38.989 711.393 0 669.6 0H354.406zm0 78.72h287.202c28.354 7.091 27.996 42.138 27.996 76.8v120.161c0 21.658 17.7 39.358 39.362 39.358H827.04c39.388 0 78.878-.026 78.878 39.362v512c0 43.32-35.553 78.879-78.878 78.879H354.406c-43.325 0-78.72-35.558-78.72-78.879V748.32h393.918c21.663 0 39.362-17.695 39.362-39.358V472.643c0-21.663-17.7-39.363-39.362-39.363H275.68V157.599c0-43.32 35.395-78.879 78.72-78.879zm-93.127 427.679h20.162l65.28 176.64h-23.04l-19.2-54.718h-65.28l-19.2 54.718h-23.04l64.318-176.64zm-181.438.962h23.998l40.32 89.278 41.282-89.278h23.998l-53.76 107.52v68.158h-22.078v-67.2L79.836 507.36zm290.878 0h32.64l49.92 143.038h.962l48.958-143.038h33.602V683.04h-22.082V576.48c0-10.88.322-26.562.962-47.042h-.962l-52.798 153.6h-19.2l-52.802-153.6h-.958c1.28 22.4 1.92 38.722 1.92 48.962v104.64h-20.162V507.36zm214.082 0h22.078v155.52h69.12v20.158h-91.188V507.36zm-312.96 23.04c-1.92 8.96-4.802 18.238-8.642 27.838l-17.28 50.882h51.84l-18.238-50.882c-3.84-10.88-6.4-20.158-7.68-27.838z"/></svg>